#N canvas 149 77 848 687 10;
#X obj 218 224 biquad~;
#X obj 61 255 biquad~;
#X obj 266 88 - 50;
#X obj 61 583 +~;
#X obj 61 18 inlet~;
#X obj 61 638 outlet~;
#X obj 267 109 moses 0;
#X obj 267 164 t b f;
#X text 345 175 bandwidth;
#X text 231 175 f;
#X text 262 63 gain;
#X obj 92 111 - 50;
#X obj 93 132 moses 0;
#X obj 93 187 t b f;
#X text 69 198 f;
#X text 94 88 gain;
#X text 139 187 slope;
#X obj 691 228 biquad~;
#X obj 728 81 - 50;
#X obj 729 102 moses 0;
#X obj 729 157 t b f;
#X text 699 168 f;
#X text 730 58 gain;
#X text 784 157 slope;
#X text 96 49 BASS;
#X text 257 35 MED BASS;
#X obj 448 224 biquad~;
#X obj 496 88 - 50;
#X obj 497 109 moses 0;
#X obj 497 164 t b f;
#X text 575 175 bandwidth;
#X text 461 175 f;
#X text 492 63 gain;
#X text 487 35 MED HIGH;
#X text 713 26 HIGH;
#X obj 233 201 equalizer 700 50 250;
#X obj 463 201 equalizer 2050 50 250;
#X obj 701 194 highshelf 4900 50 2;
#X obj 71 224 lowshelf 110 50 2;
#X obj 61 605 /~ 4;
#X obj 93 159 * 5;
#X obj 267 136 * 5;
#X obj 497 136 * 5;
#X obj 729 129 * 5;
#X obj 137 631 outlet~;
#X obj 202 631 outlet~;
#X obj 270 632 outlet~;
#X obj 335 632 outlet~;
#X obj 123 71 inlet;
#X obj 307 67 inlet;
#X obj 531 62 inlet;
#X obj 769 57 inlet;
#X connect 0 0 3 0;
#X connect 0 0 45 0;
#X connect 1 0 3 0;
#X connect 1 0 44 0;
#X connect 2 0 6 0;
#X connect 3 0 39 0;
#X connect 4 0 0 0;
#X connect 4 0 1 0;
#X connect 4 0 26 0;
#X connect 4 0 17 0;
#X connect 6 0 41 0;
#X connect 6 1 7 0;
#X connect 7 0 35 0;
#X connect 7 1 35 1;
#X connect 11 0 12 0;
#X connect 12 0 40 0;
#X connect 12 1 13 0;
#X connect 13 0 38 0;
#X connect 13 1 38 1;
#X connect 17 0 3 0;
#X connect 17 0 47 0;
#X connect 18 0 19 0;
#X connect 19 0 43 0;
#X connect 19 1 20 0;
#X connect 20 0 37 0;
#X connect 20 1 37 1;
#X connect 26 0 3 0;
#X connect 26 0 46 0;
#X connect 27 0 28 0;
#X connect 28 0 42 0;
#X connect 28 1 29 0;
#X connect 29 0 36 0;
#X connect 29 1 36 1;
#X connect 35 0 0 0;
#X connect 36 0 26 0;
#X connect 37 0 17 0;
#X connect 38 0 1 0;
#X connect 39 0 5 0;
#X connect 40 0 13 0;
#X connect 41 0 7 0;
#X connect 42 0 29 0;
#X connect 43 0 20 0;
#X connect 48 0 11 0;
#X connect 49 0 2 0;
#X connect 50 0 27 0;
#X connect 51 0 18 0;
#X coords 0 687 1 686 180 120 0;
