#N canvas 1 77 818 555 10;
#X obj -39 78 unpack 0 0 0;
#X obj -39 55 prvu~;
#X obj -5 100 > 0;
#X obj -5 124 tgl 15 0 empty empty empty 17 7 0 10 -262144 -1 -1 0
1;
#X obj -100 22 adc~ \$1;
#X obj -100 148 mtl/gateNoise~ /id adc\$1gatenoise;
#X obj -99 248 throw~ mainOutL;
#X obj 0 248 throw~ mainOutR;
#X obj -99 220 *~ 0.5;
#X obj -54 219 *~ 0.5;
#X obj 139 33 cnv 15 200 20 empty empty /adcInput~/adc1gatenoise/ 2
12 0 8 -258401 -262144 0;
#X obj 139 56 hsl 100 15 0 1 0 0 /adcInput~/adc1gatenoise/wet /adcInput~/adc1gatenoise/wet_
wet 105 7 0 8 -262144 -1 -1 0 1;
#X obj 139 74 hsl 100 15 0 100 0 0 /adcInput~/adc1gatenoise/thresholdleft
/adcInput~/adc1gatenoise/thresholdleft_ thresholdleft 105 7 0 8 -262144
-1 -1 0 1;
#X obj 139 92 hsl 100 15 0 500 0 0 /adcInput~/adc1gatenoise/attackleft
/adcInput~/adc1gatenoise/attackleft_ attackleft 105 7 0 8 -262144 -1
-1 20 1;
#X obj 139 111 hsl 100 15 0 5000 0 0 /adcInput~/adc1gatenoise/releaseleft
/adcInput~/adc1gatenoise/releaseleft_ releaseleft 105 7 0 8 -262144
-1 -1 396 1;
#X obj 240 368 vline~;
#X obj 285 297 r interpolateMs;
#X obj 240 323 pack f f;
#X msg 240 345 \$1 \$2;
#X obj 240 158 vsl 15 128 0.01 1.01 1 0 empty empty empty 0 -9 0 10
-262144 -1 -1 12700 1;
#X obj 240 299 - 0.01;
#X obj 240 137 ii 1.01;
#X obj -100 186 *~;
#X obj -102 -26 catchsend~ adc\$1InputL;
#X obj 39 -25 catchsend~ adc\$1InputR;
#X text -103 -48 bus;
#X obj -100 268 throw~ adc\$1InputL;
#X obj 16 269 throw~ adc\$1InputR;
#X text 10 229 switxch to turn off mainOutoutput?;
#X connect 0 1 2 0;
#X connect 1 0 0 0;
#X connect 2 0 3 0;
#X connect 4 0 1 0;
#X connect 4 0 5 0;
#X connect 5 0 22 0;
#X connect 8 0 6 0;
#X connect 8 0 26 0;
#X connect 9 0 7 0;
#X connect 9 0 27 0;
#X connect 15 0 22 1;
#X connect 16 0 17 1;
#X connect 17 0 18 0;
#X connect 18 0 15 0;
#X connect 19 0 20 0;
#X connect 20 0 17 0;
#X connect 21 0 19 0;
#X connect 22 0 8 0;
#X connect 22 0 9 0;
