#N canvas 1 77 450 300 10;
#X obj 62 28 inlet~;
#X obj 134 28 inlet~;
#X obj 65 259 outlet~;
#X obj 137 259 outlet~;
#X obj 71 155 *~ 5;
#X obj 145 146 *~ 5;
#X connect 0 0 4 0;
#X connect 1 0 5 0;
#X connect 4 0 2 0;
#X connect 5 0 3 0;
