#N canvas 73 77 1280 687 10;
#X declare -lib mrpeach;
#X declare -lib mtl;
#X declare -lib py;
#X declare -lib pdmtl;
#X declare -lib tof;
#X obj -221 -244 image ./bg.gif;
#N canvas 114 200 450 300 import 0;
#X obj -859 -589 import mrpeach;
#X obj -859 -567 import mtl;
#X obj -858 -544 import py;
#X obj -855 -519 import pdmtl;
#X obj -856 -493 import tof;
#X restore -873 -532 pd import;
#N canvas 1 78 450 300 state 0;
#X restore -872 -510 pd state;
#N canvas 165 153 785 489 control 0;
#X obj -815 -224 unpackOSC;
#X obj -815 -199 print;
#X obj -815 -248 udpreceive 10000;
#X obj -470 -64 udpsend;
#X obj -470 -42 tgl 15 0 empty empty connected 20 7 0 8 -24198 -241291
-1 0 1;
#X msg -458 -180 send /control/createBlankInterface myInterface portrait
;
#X obj -472 -338 bng 15 250 50 0 empty empty empty 17 7 0 10 -262144
-1 -1;
#X obj -458 -111 packOSC;
#X obj -458 -200 bng 15 250 50 0 empty empty empty 17 7 0 10 -262144
-1 -1;
#X floatatom -213 -18 5 0 0 0 - - -;
#X msg -286 -112 send /p null;
#X msg -290 -87 send /n null;
#X msg -291 -54 send /c \$1;
#X floatatom -384 38 5 0 0 0 - - -;
#X floatatom -278 18 5 0 0 0 - - -;
#X msg -565 -112 disconnect;
#X msg -387 63 send /v/1 \$1;
#X floatatom -525 25 5 0 0 0 - - -;
#X msg -528 50 send /v/0 \$1;
#X obj -687 -19 bng 15 250 50 0 empty empty empty 17 7 0 10 -262144
-1 -1;
#X obj -761 12 bng 15 250 50 0 empty empty empty 17 7 0 10 -262144
-1 -1;
#X msg -731 48 send /v/0 0.2;
#X msg -286 45 send /t/0 \$1;
#X msg -470 -313 connect 192.168.1.112 8080;
#X msg -657 17 send /v/0 4;
#X connect 0 0 1 0;
#X connect 2 0 0 0;
#X connect 3 0 4 0;
#X connect 5 0 7 0;
#X connect 6 0 23 0;
#X connect 7 0 3 0;
#X connect 8 0 5 0;
#X connect 9 0 12 0;
#X connect 10 0 7 0;
#X connect 11 0 7 0;
#X connect 12 0 7 0;
#X connect 13 0 16 0;
#X connect 14 0 22 0;
#X connect 15 0 3 0;
#X connect 16 0 7 0;
#X connect 17 0 18 0;
#X connect 18 0 7 0;
#X connect 19 0 24 0;
#X connect 20 0 21 0;
#X connect 21 0 7 0;
#X connect 22 0 7 0;
#X connect 23 0 3 0;
#X connect 24 0 7 0;
#X restore -871 -487 pd control;
#N canvas 1 77 450 300 calibration 0;
#X restore -870 -464 pd calibration;
#N canvas 63 88 1288 379 readanysf 0;
#X obj -690 -290 readanysf~;
#X msg -636 -433 play;
#X msg -555 -434 pause;
#X msg -690 -335 open \$1;
#X msg -596 -434 stop;
#X msg -509 -435 time_seek \$1;
#X obj -691 -258 dac~ 1 2;
#X obj -530 -319 route ready samplerate length cache float bang;
#X obj -530 -293 sel 1;
#X obj -472 -291 random;
#X obj -530 -269 t b b;
#X msg 188 -362 fetch;
#X obj 118 -365 t a;
#X obj -184 -378 pyext search file;
#X text -703 -477 READANYSF~ PLAYBACK ANY KIND OF SOUNDFILE;
#X obj -179 -151 packel 3;
#X text -189 -294 PICK RANDOM;
#X obj -101 -220 list;
#X obj -80 -243 list prepend;
#X obj 2 -243 t l;
#X obj -101 -197 list length;
#X obj -134 -175 random;
#X obj -183 -197 t b a;
#X obj -183 -446 loadbang;
#X msg 118 -429 wav;
#X obj -183 -423 t b b b;
#X obj -187 -270 r \$0-p1b4;
#X text -306 -300 end;
#X obj 118 -407 l2s;
#X msg 118 -385 ext \$1;
#X msg -183 -402 set /home/psc/11h11/oreilles/sample/freesound/;
#X text -183 -478 RECURSIVE SEARCH OF SFX;
#X msg 627 -358 fetch;
#X obj 557 -361 t a;
#X obj 255 -374 pyext search file;
#X obj 260 -147 packel 3;
#X text 250 -290 PICK RANDOM;
#X obj 338 -216 list;
#X obj 359 -239 list prepend;
#X obj 441 -239 t l;
#X obj 338 -193 list length;
#X obj 305 -171 random;
#X obj 256 -193 t b a;
#X obj 256 -442 loadbang;
#X msg 557 -425 wav;
#X obj 256 -419 t b b b;
#X obj 557 -403 l2s;
#X msg 557 -381 ext \$1;
#X text 256 -474 RECURSIVE SEARCH OF MUSIC;
#X msg 256 -398 set /home/psc/11h11/oreilles/sample/drum;
#X obj 252 -266 r \$0-p1b5;
#X connect 0 0 6 0;
#X connect 0 1 6 1;
#X connect 0 2 7 0;
#X connect 1 0 0 0;
#X connect 2 0 0 0;
#X connect 3 0 0 0;
#X connect 4 0 0 0;
#X connect 5 0 0 0;
#X connect 7 0 8 0;
#X connect 7 2 9 1;
#X connect 8 0 10 0;
#X connect 9 0 5 0;
#X connect 10 0 1 0;
#X connect 10 1 9 0;
#X connect 11 0 13 1;
#X connect 12 0 13 1;
#X connect 13 0 18 0;
#X connect 15 0 3 0;
#X connect 17 0 20 0;
#X connect 17 0 22 0;
#X connect 18 0 19 0;
#X connect 18 0 17 1;
#X connect 19 0 18 1;
#X connect 20 0 21 1;
#X connect 21 0 15 1;
#X connect 22 0 21 0;
#X connect 22 1 15 0;
#X connect 23 0 25 0;
#X connect 24 0 28 0;
#X connect 25 0 11 0;
#X connect 25 1 30 0;
#X connect 25 2 24 0;
#X connect 26 0 17 0;
#X connect 28 0 29 0;
#X connect 29 0 12 0;
#X connect 30 0 13 1;
#X connect 32 0 34 1;
#X connect 33 0 34 1;
#X connect 34 0 38 0;
#X connect 35 0 3 0;
#X connect 37 0 40 0;
#X connect 37 0 42 0;
#X connect 38 0 39 0;
#X connect 38 0 37 1;
#X connect 39 0 38 1;
#X connect 40 0 41 1;
#X connect 41 0 35 1;
#X connect 42 0 41 0;
#X connect 42 1 35 0;
#X connect 43 0 45 0;
#X connect 44 0 46 0;
#X connect 45 0 32 0;
#X connect 45 1 49 0;
#X connect 45 2 44 0;
#X connect 46 0 47 0;
#X connect 47 0 33 0;
#X connect 49 0 34 1;
#X connect 50 0 37 0;
#X restore -568 -495 pd readanysf;
#X obj -869 -579 mtl/browser;
#N canvas 1 77 450 300 core 0;
#X obj 18 30 loadbang;
#X msg 18 58 \; pd dsp 1 \;;
#X connect 0 0 1 0;
#X restore -870 -441 pd core;
#N canvas 660 213 450 300 hicu 0;
#X obj 45 46 s \$0-p1b4;
#X obj 45 26 bng 15 250 50 0 empty empty empty 17 7 0 10 -262144 -1
-1;
#X obj 119 26 bng 15 250 50 0 empty empty empty 17 7 0 10 -262144 -1
-1;
#X obj 119 46 s \$0-p1b5;
#X connect 1 0 0 0;
#X connect 2 0 3 0;
#X restore -568 -540 pd hicu;
#N canvas 1 77 450 300 tuner 0;
#X obj -651 -223 nbx 5 40 -1e+37 1e+37 0 0 empty empty empty 0 -8 0
36 -262144 -1 -1 8.1758 256;
#X obj -651 -246 mtof;
#X obj -459 -300 cnv 15 5 5 empty empty E2:82.41Hz 20 12 0 18 -233017
-66577 0;
#X obj -459 -280 cnv 15 5 5 empty empty A2:110Hz 20 12 0 18 -233017
-66577 0;
#X obj -459 -260 cnv 15 5 5 empty empty D3:146.8Hz 20 12 0 18 -233017
-66577 0;
#X obj -459 -240 cnv 15 5 5 empty empty G3:196Hz 20 12 0 18 -233017
-66577 0;
#X obj -459 -220 cnv 15 5 5 empty empty B3:246.9Hz 20 12 0 18 -233017
-66577 0;
#X obj -459 -200 cnv 15 5 5 empty empty E4:329.6Hz 20 12 0 18 -233017
-66577 0;
#X obj -677 -293 fiddle~;
#X obj -651 -269 unpack f f;
#X obj -660 -386 loadbang;
#X msg -644 -337 amp-range 38 86;
#X msg -643 -359 npoints 2048;
#X connect 1 0 0 0;
#X connect 8 2 9 0;
#X connect 9 0 1 0;
#X connect 10 0 11 0;
#X connect 10 0 12 0;
#X connect 11 0 8 0;
#X connect 12 0 8 0;
#X restore -569 -517 pd tuner;
#N canvas 1 77 450 300 output 0;
#X obj -357 -97 mtl/limit~;
#X obj -357 -70 hip~ 5;
#X text -356 -149 stereo or mono switch;
#X restore -567 -469 pd output;
