#N canvas 112 96 1280 728 10;
#X declare -lib mrpeach;
#X declare -lib mtl;
#N canvas 122 204 450 300 import 0;
#X obj -859 -589 import mrpeach;
#X obj -859 -567 import mtl;
#X restore -873 -532 pd import;
#N canvas 1 79 450 300 state 0;
#X restore -872 -510 pd state;
#N canvas 167 154 785 489 control 0;
#X obj -815 -224 unpackOSC;
#X obj -815 -199 print;
#X obj -815 -248 udpreceive 10000;
#X obj -470 -64 udpsend;
#X obj -470 -42 tgl 15 0 empty empty connected 20 7 0 8 -24198 -241291
-1 0 1;
#X msg -458 -180 send /control/createBlankInterface myInterface portrait
;
#X obj -472 -338 bng 15 250 50 0 empty empty empty 17 7 0 10 -262144
-1 -1;
#X obj -458 -111 packOSC;
#X obj -458 -200 bng 15 250 50 0 empty empty empty 17 7 0 10 -262144
-1 -1;
#X floatatom -213 -18 5 0 0 0 - - -;
#X msg -286 -112 send /p null;
#X msg -290 -87 send /n null;
#X msg -291 -54 send /c \$1;
#X floatatom -384 38 5 0 0 0 - - -;
#X floatatom -278 18 5 0 0 0 - - -;
#X msg -565 -112 disconnect;
#X msg -387 63 send /v/1 \$1;
#X floatatom -525 25 5 0 0 0 - - -;
#X msg -528 50 send /v/0 \$1;
#X obj -687 -19 bng 15 250 50 0 empty empty empty 17 7 0 10 -262144
-1 -1;
#X obj -761 12 bng 15 250 50 0 empty empty empty 17 7 0 10 -262144
-1 -1;
#X msg -731 48 send /v/0 0.2;
#X msg -286 45 send /t/0 \$1;
#X msg -470 -313 connect 192.168.1.112 8080;
#X msg -657 17 send /v/0 4;
#X connect 0 0 1 0;
#X connect 2 0 0 0;
#X connect 3 0 4 0;
#X connect 5 0 7 0;
#X connect 6 0 23 0;
#X connect 7 0 3 0;
#X connect 8 0 5 0;
#X connect 9 0 12 0;
#X connect 10 0 7 0;
#X connect 11 0 7 0;
#X connect 12 0 7 0;
#X connect 13 0 16 0;
#X connect 14 0 22 0;
#X connect 15 0 3 0;
#X connect 16 0 7 0;
#X connect 17 0 18 0;
#X connect 18 0 7 0;
#X connect 19 0 24 0;
#X connect 20 0 21 0;
#X connect 21 0 7 0;
#X connect 22 0 7 0;
#X connect 23 0 3 0;
#X connect 24 0 7 0;
#X restore -871 -487 pd control;
#N canvas 1 79 450 300 calibration 0;
#X restore -870 -464 pd calibration;
#N canvas 277 244 959 534 readanysf 1;
#X obj -639 -400 readanysf~;
#X msg -556 -445 play;
#X msg -475 -446 pause;
#X msg -639 -445 open \$1;
#X obj -639 -473 openpanel;
#X obj -639 -505 bng 25 250 50 0 empty empty empty 17 7 0 10 -4032
-1 -1;
#X msg -516 -446 stop;
#X msg -411 -442 time_seek \$1;
#X obj -621 -344 dac~ 1 2;
#X obj -223 -305 bng 15 250 50 0 empty empty empty 17 7 0 10 -262144
-1 -1;
#X obj -450 -331 route ready samplerate length cache float bang;
#X text -202 -307 bang: end of file.;
#X obj -525 -121 sel 1;
#X obj -391 -5 random;
#X obj -528 -85 t b b;
#X msg -90 -458 bang;
#X obj -45 -231 bng 15 250 50 0 empty empty empty 0 -6 0 8 -262144
-1 -1;
#X msg 67 -276 symbol /usr/*;
#X text -55 -458 list current directory;
#X text 51 -294 set pattern without no output;
#X obj -26 -254 folder_list /*;
#X obj -26 -233 print;
#X msg -18 -385 symbol ~/*.*;
#X text 78 -334 relative paths work;
#X msg -7 -333 symbol ../*;
#X text 55 -407 drive letters work on ReactOS/Windows;
#X msg -32 -408 symbol C:/*;
#X text 81 -383 all files with a dot in your home;
#X msg -69 -433 symbol %USERPROFILE%/*;
#X text 94 -432 ReactOS/Windows environment variables work;
#X text 153 -313 nested wildcards work on UNIX;
#X msg 10 -312 symbol /var/*/*.log;
#X text 64 -358 patterns default to path that Pd launched from;
#X msg -12 -358 symbol *.pd;
#X connect 0 0 8 0;
#X connect 0 1 8 1;
#X connect 0 2 10 0;
#X connect 1 0 0 0;
#X connect 2 0 0 0;
#X connect 3 0 0 0;
#X connect 4 0 3 0;
#X connect 5 0 4 0;
#X connect 6 0 0 0;
#X connect 7 0 0 0;
#X connect 10 0 12 0;
#X connect 10 2 13 1;
#X connect 10 5 9 0;
#X connect 12 0 14 0;
#X connect 13 0 7 0;
#X connect 14 0 1 0;
#X connect 14 1 13 0;
#X connect 15 0 20 0;
#X connect 17 0 20 1;
#X connect 20 0 16 0;
#X connect 20 0 21 0;
#X connect 22 0 20 0;
#X connect 24 0 20 0;
#X connect 26 0 20 0;
#X connect 28 0 20 0;
#X connect 31 0 20 0;
#X connect 33 0 20 0;
#X restore -870 -443 pd readanysf;
#X obj -869 -579 mtl/browser;
