#N canvas 96 77 1088 687 10;
#X declare -lib mrpeach;
#X declare -lib mtl;
#X declare -lib py;
#X declare -lib pdmtl;
#X declare -lib fluid~;
#X declare -lib tof;
#X obj -618 -491 image ./bg.gif;
#N canvas 108 197 450 300 import 0;
#X obj -859 -589 import mrpeach;
#X obj -859 -567 import mtl;
#X obj -858 -544 import py;
#X obj -855 -519 import pdmtl;
#X obj -856 -469 import fluid~;
#X obj -856 -493 import tof;
#X restore -1154 -775 pd import;
#N canvas 646 348 450 300 state 0;
#N canvas 429 334 525 231 /id 0;
#X text 26 42 Abstraction /id:;
#X text 63 67 If an abstraction's arguments contains the "/id" keyword
\, the symbol following the "/id" keyword \, instead of the abstraction's
name \, will be used to build the path.;
#X restore 335 -146 pd /id;
#N canvas 84 77 933 657 /name 0;
#X floatatom 459 165 5 0 0 0 - - -;
#X floatatom 459 215 5 0 0 0 - - -;
#X obj 503 168 bng 15 250 50 0 empty empty empty 17 7 0 10 -262144
-1 -1;
#X obj 454 19 cnv 15 300 20 empty empty empty 20 12 0 14 -4034 -66577
0;
#X text 450 543 nbx: creates a numberbox;
#X text 450 561 slider min max: creates a slider with the indicated
minimum and maximum;
#X text 450 592 bng: creates a bang;
#X text 450 610 tgl: creates a toggle;
#X floatatom 452 510 5 0 0 0 - - -;
#X text 449 526 /g options:;
#X text 453 43 A param automatically ouputs its value when it is created.
You can disable this behavior with the "/nlb" (no loadbang) keyword.
;
#X text 457 20 /nlb keyword: No loadbang;
#X obj 453 118 cnv 15 300 20 empty empty empty 20 12 0 14 -4034 -66577
0;
#X text 455 119 /wfb keyword: Wait for bang;
#X obj 454 248 cnv 15 300 20 empty empty empty 20 12 0 14 -4034 -66577
0;
#X text 456 248 /ns keyword: No save;
#X obj 453 405 cnv 15 300 20 empty empty empty 20 12 0 14 -4034 -66577
0;
#X text 455 405 /g keyword: GUI options;
#X obj 455 328 cnv 15 300 20 empty empty empty 20 12 0 14 -4034 -66577
0;
#X text 457 329 /nps keyword: No preset save;
#X text 449 268 The param will never be saved.;
#X text 451 353 The param will never be saved in a preset file.;
#X text 456 142 The param will only output its contents on a bang.
;
#X obj 452 484 tof/param /number 30 /g nbx;
#X obj 460 192 tof/param /waiting 50 /wfb;
#X obj 11 285 cnv 15 300 20 empty empty empty 20 12 0 14 -4034 -66577
0;
#X text 13 286 arguments;
#X text 10 345 argument 1 symbol: name (must start with a slash);
#X text 11 362 argument 2 variable: optionnal default value (can be
anything and of any length);
#X text 11 393 other arguments: special keywords and options;
#X text 10 42 A param object creates a storage area for anything. This
data can be accessed and modified through a unique path.;
#X obj 12 18 cnv 15 300 20 empty empty empty 20 12 0 14 -257985 -66577
0;
#X obj 13 321 tof/param /name default;
#X text 12 417 The path to a param starts at the root patch and includes
the name of each abstraction that was taversed to reach the object.
The path of the param above is: /name;
#X text 95 514 <- open me;
#X obj 536 86 tof/param /not_lb 50 /nlb;
#X obj 453 293 tof/param /not_saving 50 /ns;
#X obj 455 377 tof/param /no_presets 67 /nps;
#X obj 16 548 cnv 15 300 20 empty empty empty 20 12 0 14 -4034 -66577
0;
#X text 18 549 keywords;
#X text 19 572 You can use many keywords to configure your params.
Each keyword starts with a /. You can use as many keywords as you want
as long at they are not the first argument (that is reserved for the
name).;
#X text 452 434 When you create a param \, you can use the "/g" keyword
to flag the param with gui options that are used by [param gui] to
automatically build GUIs.;
#X text 450 628 symbolatom or sym : creates a symbol box;
#X obj 15 79 cnv 15 300 20 empty empty empty 20 12 0 14 -260097 -66577
0;
#X text 17 80 inlets/outlets;
#X text 14 104 inlet 1 bang: outputs the value of the param.;
#X text 14 121 inlet 1 anything: stores the value received and outputs
it.;
#X text 13 138 inlet 2 anything: stores the value received.;
#X text 13 157 outlet 2 anything: the stored value.;
#X text 11 477 The path to the param "/carrier" in the middle of the
following abstraction is: /test-param/carrier;
#X text 14 18 param /name;
#X obj 16 516 ./test-param;
#X obj 16 185 cnv 15 300 20 empty empty empty 20 12 0 14 -4032 -66577
0;
#X text 18 186 default value;
#X connect 0 0 24 0;
#X connect 2 0 24 0;
#X connect 23 0 8 0;
#X connect 24 0 1 0;
#X restore -8 -299 pd /name;
#N canvas 141 64 837 442 custom 0;
#X obj 17 211 cnv 15 300 20 empty empty empty 20 12 0 14 -4034 -66577
0;
#X text 19 212 arguments;
#X obj 18 19 cnv 15 300 20 empty empty empty 20 12 0 14 -257985 -66577
0;
#X text 20 43 Saves and restores any type and quantity of data in a
param file.;
#X text 16 235 argument 1 symbol: the name. Must start with a '/'.
;
#X obj 18 282 cnv 15 300 20 empty empty empty 20 12 0 14 -4034 -66577
0;
#X text 20 283 keywords;
#X text 16 307 There is only one keyword: /nps;
#X obj 17 335 cnv 15 300 20 empty empty empty 20 12 0 14 -4034 -66577
0;
#X text 19 336 /nps keyword: No preset save;
#X text 13 360 The param will never be saved in a preset file.;
#X obj 17 384 tof/param custom /yogourt /nps;
#X obj 18 83 cnv 15 300 20 empty empty empty 20 12 0 14 -260097 -66577
0;
#X text 23 83 inlets/outlets;
#X text 18 109 inlet 1 anything: data to be saved (can be multiple
messages).;
#X obj 495 212 list prepend;
#X text 576 211 Prepend the key to the value;
#X obj 444 110 t b b;
#X msg 541 90 clear;
#X msg 444 139 dump;
#X text 434 46 In the following example \, [param custom] will save
and restore the contents of the [cyclone/coll].;
#X obj 495 185 cyclone/coll;
#C restore;
#X text 427 243 When a param save is called \, the [t b b] is banged.
The message "clear" is stored and "dump" is sent to [cyclone/coll].
The list builds a "key data" pair out of the dumped data. This pair
is then also stored.;
#X text 426 305 When a param load is called \, the stored "clear" message
is sent to [cyclone/coll] \, clearing its contents. Afterwards. each
of the stored data pairs is then sent to [cyclone/coll] restoring the
previous data.;
#X obj 541 115 param custom /coll;
#X text 17 160 outlet 2: the data to be restored by a param load.;
#X text 18 141 outlet 1 bang: bangs when a param save is called.;
#X text 16 256 other arguments: keywords (see below).;
#X text 20 19 param custom;
#X connect 15 0 24 0;
#X connect 17 0 19 0;
#X connect 17 1 18 0;
#X connect 18 0 24 0;
#X connect 19 0 21 0;
#X connect 21 0 15 0;
#X connect 21 1 15 1;
#X connect 24 0 17 0;
#X connect 24 1 21 0;
#X restore -8 -278 pd custom;
#N canvas 222 499 637 424 path 0;
#X obj 373 67 bng 15 250 50 0 empty empty empty 17 7 0 10 -262144 -1
-1;
#X obj 373 115 print;
#X obj 41 190 cnv 15 300 20 empty empty empty 20 12 0 14 -4034 -66577
0;
#X text 43 191 arguments;
#X obj 40 58 cnv 15 300 20 empty empty empty 20 12 0 14 -257985 -66577
0;
#X obj 40 112 cnv 15 300 20 empty empty empty 20 12 0 14 -260097 -66577
0;
#X text 45 112 inlets/outlets;
#X text 41 82 Outputs the current param path.;
#X obj 375 180 ./test-param-2;
#X obj 373 91 tof/param path;
#X obj 375 152 bng 15 250 50 0 empty empty empty 17 7 0 10 -262144
-1 -1;
#X text 392 64 1) Click here;
#X text 396 150 2) Click here;
#X text 40 138 inlet 1 bang: outputs the param path.;
#X text 40 160 outlet 1 symbol: the param path.;
#X text 40 214 none.;
#X text 42 58 param path;
#X connect 0 0 9 0;
#X connect 9 0 1 0;
#X connect 10 0 8 0;
#X restore -8 -257 pd path;
#N canvas 70 415 866 433 dump 0;
#X obj 420 258 print;
#X obj 421 78 bng 15 250 50 0 empty empty empty 17 7 0 10 -262144 -1
-1;
#X msg 464 150 guis;
#X text 444 79 A bang will output all the params and their values.
;
#X msg 445 109 symbol /FM_MOD;
#X text 541 107 A symbol will dump only the params that start with
that path.;
#X text 501 147 Guis will output all the optional /g values.;
#X obj 421 224 tof/param dump;
#X msg 501 175 guis /FM_MOD;
#X obj 33 257 cnv 15 300 20 empty empty empty 20 12 0 14 -4034 -66577
0;
#X text 35 258 arguments;
#X obj 33 45 cnv 15 300 20 empty empty empty 20 12 0 14 -257985 -66577
0;
#X obj 33 109 cnv 15 300 20 empty empty empty 20 12 0 14 -260097 -66577
0;
#X text 38 109 inlets/outlets;
#X text 32 281 none.;
#X text 32 68 Outputs the params and their values or the params and
their GUI options.;
#X text 33 135 inlet 1 bang: outputs the all the params and their values.
;
#X text 33 152 inlet 1 symbol: outputs the params and their values
if their names start with this symbol.;
#X text 33 182 inlet 1 guis: outputs the params and their GUI options
if their names start with this symbol.;
#X text 32 216 inlet 1 guis symbol: outputs the params and their GUI
options if their names start with this symbol.;
#X text 35 45 param dump;
#X connect 1 0 7 0;
#X connect 2 0 7 0;
#X connect 4 0 7 0;
#X connect 7 0 0 0;
#X connect 8 0 7 0;
#X restore -8 -236 pd dump;
#N canvas 18 345 838 409 file 0;
#X obj 489 38 hradio 15 1 0 8 empty empty empty 0 -8 0 10 -262144 -1
-1 0;
#X obj 547 151 hradio 15 1 0 8 empty empty empty 0 -8 0 10 -262144
-1 -1 0;
#X obj 464 17 bng 15 250 50 0 empty empty empty 17 7 0 10 -262144 -1
-1;
#X obj 521 127 bng 15 250 50 0 empty empty empty 17 7 0 10 -262144
-1 -1;
#X floatatom 489 62 5 0 0 0 - - -;
#X floatatom 547 173 5 0 0 0 - - -;
#X obj 464 198 param file;
#X obj 24 321 cnv 15 300 20 empty empty empty 20 12 0 14 -4034 -66577
0;
#X text 26 322 arguments;
#X obj 24 19 cnv 15 300 20 empty empty empty 20 12 0 14 -257985 -66577
0;
#X obj 24 183 cnv 15 300 20 empty empty empty 20 12 0 14 -260097 -66577
0;
#X text 29 183 inlets/outlets;
#X text 23 345 none.;
#X text 26 40 Saves/restores params in a param file.;
#X text 25 98 All params that do not have the "/ns" keyword are saved
in the "main" param file.;
#X text 24 133 All params that do not have the "/ns" or "/nps" keywords
are saved in the "preset" param files.;
#X text 25 61 There are two types of param file. A "main" param file
and up to 1000 "preset" param files.;
#X text 529 60 Save to "preset" file n.;
#X text 585 172 Restore for "preset" file n.;
#X text 543 125 Restore from "main" param file.;
#X text 486 13 Save to "main" param file.;
#X text 24 209 inlet 1 bang: save to "main" param file.;
#X text 24 263 inlet 2 bang: restore from "main" param file.;
#X obj 442 247 cnv 15 300 20 empty empty empty 20 12 0 14 -4032 -66577
0;
#X text 444 248 param file names;
#X text 441 271 All param files are always stored and searched for
in the same folder as the root patch's folder.;
#X text 443 305 The "main" param file is named as follows:;
#X text 622 323 "name of root patch.param";
#X text 26 280 inlet 2 float: restore from "preset" file n where n
is a number between 0 and 999;
#X text 26 228 inlet 1 float: save to "preset" file n where n is a
number between 0 and 999;
#X text 581 374 "name of root patch-nnnn.param";
#X text 444 341 The "preset" param files are named as follows \, where
nnnn is always four digits:;
#X text 26 19 param file;
#X connect 0 0 4 0;
#X connect 1 0 5 0;
#X connect 2 0 6 0;
#X connect 3 0 6 1;
#X connect 4 0 6 0;
#X connect 5 0 6 1;
#X restore -8 -215 pd file;
#N canvas 17 441 981 371 route 0;
#X obj 33 203 cnv 15 300 20 empty empty empty 20 12 0 14 -4034 -66577
0;
#X text 35 204 arguments;
#X obj 33 31 cnv 15 300 20 empty empty empty 20 12 0 14 -257985 -66577
0;
#X obj 33 85 cnv 15 300 20 empty empty empty 20 12 0 14 -260097 -66577
0;
#X text 38 85 inlets/outlets;
#X text 35 228 none.;
#X text 38 53 Routes messages to params.;
#X text 35 31 param route;
#X text 35 112 inlet 1 anything: the first element of the anything
determines the target. The rest of the elements of the anything are
sent the target.;
#X obj 36 257 cnv 15 300 20 empty empty empty 20 12 0 14 -4032 -66577
0;
#X text 38 258 targets;
#X text 35 160 outlet 1 anything: messages that do not have a valid
target name or whose target was not found.;
#X text 34 282 [param route] prepends its own path to the target name.
This allows the targeting of params with a relative path. Even if the
paths are relative \, they still need to start with a '/'.;
#X obj 412 225 ./test-param /id routing;
#X floatatom 482 292 5 0 0 0 - - -;
#X floatatom 553 261 5 0 0 0 - - -;
#X text 566 221 <-There is a [param route] connected to the first inlet
of this abstraction.;
#X text 594 259 <-This is connected to a [param /b] inside the abstraction.
;
#X text 518 293 <-This is connected to a [param /a] inside the abstraction.
;
#X msg 470 187 /b \$1;
#X msg 418 161 /a \$1;
#X floatatom 417 137 5 0 0 0 - - -;
#X floatatom 474 159 5 0 0 0 - - -;
#X connect 13 1 14 0;
#X connect 13 2 15 0;
#X connect 19 0 13 0;
#X connect 20 0 13 0;
#X connect 21 0 20 0;
#X connect 22 0 19 0;
#X restore -8 -194 pd route;
#N canvas 18 136 986 455 gui 0;
#X obj 431 21 bng 15 250 50 0 empty empty empty 17 7 0 10 -262144 -1
-1;
#X obj 506 75 bng 15 250 50 0 empty empty empty 17 7 0 10 -262144 -1
-1;
#X obj 431 110 tof/param gui;
#X obj 11 292 cnv 15 300 20 empty empty empty 20 12 0 14 -4034 -66577
0;
#X text 13 293 arguments;
#X obj 5 7 cnv 15 300 20 empty empty empty 20 12 0 14 -257985 -66577
0;
#X obj 9 114 cnv 15 300 20 empty empty empty 20 12 0 14 -260097 -66577
0;
#X text 14 114 inlets/outlets;
#X text 13 317 none.;
#X text 7 7 param gui;
#X floatatom 383 288 5 0 0 0 - - -;
#X obj 375 415 dac~;
#X obj 423 334 hsl 128 15 0 1 0 0 empty empty empty -2 -8 0 10 -262144
-1 -1 0 1;
#X msg 383 310 /modulation/index \$1;
#X msg 420 355 /volume \$1;
#X obj 594 260 cnv 15 200 20 empty empty /FM_MOD/ 2 12 0 8 -258401
-262144 0;
#X obj 594 283 nbx 5 14 -1e+37 1e+37 0 0 /FM_MOD/modulation/freq /FM_MOD/modulation/freq_
modulation/freq 50 8 0 8 -1 -262144 -1 3 256;
#X obj 594 301 nbx 5 14 -1e+37 1e+37 0 0 /FM_MOD/modulation/index /FM_MOD/modulation/index_
modulation/index 50 8 0 8 -1 -262144 -1 20 256;
#X obj 594 319 hsl 100 15 0 1 0 0 /FM_MOD/volume /FM_MOD/volume_ volume
105 7 0 8 -1 -262144 -1 0 1;
#X obj 594 337 hsl 100 15 200 2000 0 0 /FM_MOD/carrier /FM_MOD/carrier_
carrier 105 7 0 8 -1 -262144 -1 3300 1;
#X obj 383 380 ./test-param /id FM_MOD /carrier 600;
#X text 8 32 Automatically builds a gui for params. The values of the
GUI elements are always up to date.;
#X text 618 378 <-Click this abstraction's properties menu. The [iemguts/propertybang]
bangs the [param gui] that creates the GUI window.;
#X obj 430 209 tof/param gui;
#X text 531 73 Destroy the created GUI (the only way to force its recreation).
;
#X text 453 10 Builds the gui for all params that are in the current
patch or in any children patches of this patch.;
#X text 9 65 GUIs will only be built for params that have GUI options
set with the /g keyword.;
#X msg 531 171 symbol /FM_MOD/modulation;
#X text 7 228 inlet 2 bang: destroy the previously created window (the
only way to force its recreation if the path does not change).;
#X text 9 140 inlet 1 bang: creates the GUIs one (or until the target
path changes) for all params in the current patch or lower and displays
the window.;
#X text 8 184 inlet 1 symbol: creates the GUIs one (or until the target
path changes) for all params that match the indicated path and displays
the window.;
#X msg 430 171 symbol /FM_MOD;
#X text 525 194 Only display the GUIs for params in the indicated path.
;
#X text 526 207 Each time the path changes \, the GUIs are rebuilt
and this can slow down Pure Data.;
#X connect 0 0 2 0;
#X connect 1 0 2 1;
#X connect 10 0 13 0;
#X connect 12 0 14 0;
#X connect 13 0 20 0;
#X connect 14 0 20 0;
#X connect 20 0 11 0;
#X connect 20 0 11 1;
#X connect 27 0 23 0;
#X connect 31 0 23 0;
#X restore -8 -173 pd gui;
#X text 53 -303 Defines a parameter to save/restore/route/display.
;
#X text 56 -281 Can save/restore any number of things in a param file.
;
#X text 56 -260 Outputs the current param path.;
#X text 56 -239 Outputs information about the params.;
#X text 56 -218 Saves/restores params in a param file.;
#X text 55 -197 Routes messages to params.;
#X text 56 -176 Automatically builds a gui for params.;
#X text -9 -335 Open the folowing subpatches for more information on
each class.;
#X text -12 -145 Keyword for defining the param path inside abstractions:
;
#X restore -1153 -741 pd state;
#N canvas 311 197 958 489 control 1;
#X obj -773 -312 unpackOSC;
#X obj -773 -287 print;
#X obj -773 -336 udpreceive 10000;
#X obj -470 -64 udpsend;
#X msg -270 -265 send /control/createBlankInterface myInterface portrait
;
#X obj -165 -344 bng 15 250 50 0 empty empty empty 17 7 0 10 -262144
-1 -1;
#X obj -458 -111 packOSC;
#X obj -270 -285 bng 15 250 50 0 empty empty empty 17 7 0 10 -262144
-1 -1;
#X msg -5 -64 send /p null;
#X msg -4 -41 send /n null;
#X msg -2 5 send /c \$1;
#X floatatom -620 -186 5 0 0 0 - - -;
#X floatatom -407 -170 5 0 0 0 - - -;
#X msg -610 -310 disconnect;
#X msg -623 -161 send /v/1 \$1;
#X floatatom -712 -183 5 0 0 0 - - -;
#X msg -715 -158 send /v/0 \$1;
#X msg -163 -319 connect 192.168.1.112 8080;
#X obj -349 -344 bng 15 250 50 0 empty empty empty 17 7 0 10 -262144
-1 -1;
#X msg -347 -318 connect 192.168.2.100 8080;
#X obj -272 -177 speedlim 100;
#X msg -408 -149 send /tuning \$1;
#X obj -271 -199 spigot;
#X obj -470 -39 tgl 25 0 empty empty empty 17 7 0 10 -262144 -1 -1
1 1;
#X msg -10 -166 send /gr tuning;
#X msg -9 -143 send /re tuning;
#X msg -7 -122 send /bl tuning;
#X msg -7 -188 send /or tuning;
#X obj -532 -336 bng 15 250 50 0 empty empty empty 17 7 0 10 -262144
-1 -1;
#X obj -531 -360 loadbang;
#X text -509 -336 E8;
#X text -324 -342 PDBox;
#X obj -459 -232 metro 300;
#X obj -460 -255 tgl 15 0 empty empty empty 17 7 0 10 -262144 -1 -1
1 1;
#X obj -455 -151 mod 2;
#X obj -456 -170 f;
#X obj -456 -190 + 1;
#X msg -459 -211 1;
#X obj -410 -210 sel 0 1;
#X msg -410 -190 0.1;
#X msg -383 -188 0.3;
#X floatatom -411 -257 5 0 0 0 - - -;
#X msg -462 -277 1;
#X text -11 -209 COLORS;
#X text -8 -87 PAGE;
#X text -127 -347 TOBO;
#X obj -271 -222 r controlOSC;
#X floatatom -5 -18 5 0 0 0 - - -;
#X obj -737 -239 routeOSC;
#X obj -735 -286 s fromOSC;
#X msg -530 -311 connect 192.168.1.102 8080;
#X connect 0 0 1 0;
#X connect 0 0 49 0;
#X connect 2 0 0 0;
#X connect 3 0 22 1;
#X connect 3 0 23 0;
#X connect 4 0 6 0;
#X connect 5 0 17 0;
#X connect 6 0 3 0;
#X connect 7 0 4 0;
#X connect 8 0 6 0;
#X connect 9 0 6 0;
#X connect 10 0 6 0;
#X connect 11 0 14 0;
#X connect 12 0 21 0;
#X connect 13 0 3 0;
#X connect 14 0 6 0;
#X connect 15 0 16 0;
#X connect 16 0 6 0;
#X connect 17 0 3 0;
#X connect 18 0 19 0;
#X connect 19 0 3 0;
#X connect 22 0 6 0;
#X connect 24 0 6 0;
#X connect 25 0 6 0;
#X connect 26 0 6 0;
#X connect 27 0 6 0;
#X connect 28 0 50 0;
#X connect 29 0 28 0;
#X connect 29 0 42 0;
#X connect 32 0 37 0;
#X connect 33 0 32 0;
#X connect 34 0 38 0;
#X connect 35 0 36 1;
#X connect 35 0 34 0;
#X connect 36 0 35 0;
#X connect 37 0 36 0;
#X connect 38 0 39 0;
#X connect 38 1 40 0;
#X connect 39 0 12 0;
#X connect 40 0 12 0;
#X connect 41 0 32 1;
#X connect 42 0 33 0;
#X connect 46 0 22 0;
#X connect 47 0 10 0;
#X connect 50 0 3 0;
#X restore -1154 -715 pd control;
#X obj -1153 -824 mtl/browser;
#N canvas 1 77 450 300 core 0;
#X obj 18 30 loadbang;
#X msg 18 58 \; pd dsp 1 \;;
#X connect 0 0 1 0;
#X restore -1153 -796 pd core;
#N canvas 325 82 826 567 hicu 1;
#X obj 277 450 bng 15 250 50 0 empty empty empty 17 7 0 10 -262144
-1 -1;
#X obj 278 496 bng 15 250 50 0 empty empty empty 17 7 0 10 -262144
-1 -1;
#X obj -82 396 t b b;
#X obj 8 396 t b b;
#X floatatom -82 494 5 0 0 0 - - -;
#X obj -82 445 cupd;
#X obj -82 468 mod 5;
#X text -44 493 changePage OSC;
#X msg 35 418 1;
#X obj 407 381 t b b;
#X obj 497 381 t b b;
#X floatatom 407 479 5 0 0 0 - - -;
#X obj 407 430 cupd;
#X obj 407 453 mod 5;
#X msg 432 402 0;
#X msg 524 403 1;
#X msg 293 423 0;
#X obj 293 402 t b;
#X text -119 338 PAGE COUNTER (CONTROL);
#X text 292 361 reset;
#X obj 27 7 gac ________________;
#X obj -109 519 s currentPage;
#X obj 68 79 debytemask .................;
#X obj 110 56 debytemask ..........;
#X obj 100 36 debytemask .............;
#X obj -129 193 r p0b5;
#X obj -85 193 r p0b6;
#X obj -20 196 r p0b7;
#X obj 26 196 r p0b8;
#X obj 392 75 hicuGlobal;
#X obj 280 73 hicuGlobal;
#X obj -156 217 hicuAnalog 2;
#X obj -150 138 hicuAnalog 1;
#X obj -66 139 hicuAnalog 3;
#X obj -48 220 hicuAnalog 4;
#X obj 21 139 hicuAnalog 5;
#X obj 293 380 r currentPage;
#X obj 407 359 r nextState;
#X obj 497 359 r previousState;
#X obj 446 451 r nbState;
#X obj 380 504 s currentState;
#X obj 278 515 s nextState;
#X obj 278 470 s previousState;
#X obj -44 468 r nbPage;
#X text 287 336 STATE COUNTER (tof/param);
#X text 445 478 param file;
#X obj -82 373 r nextPage;
#X obj 8 374 r previousPage;
#X obj 280 95 s previousPage;
#X obj 392 95 s nextPage;
#X obj 470 265 hicuSwitch 16;
#X text -151 104 SLIDERS;
#X text -151 166 PEDALS with calibration;
#X msg -57 417 0;
#X obj -113 421 ii 1;
#X obj 42 259 hicuSwitch 1;
#X obj 191 217 hicuSwitch 7;
#X obj 206 196 hicuSwitch 8;
#X obj 165 259 hicuSwitch 5;
#X obj 181 238 hicuSwitch 6;
#X obj 299 200 hicuSwitch 9;
#X obj 308 221 hicuSwitch 10;
#X obj 323 243 hicuSwitch 11;
#X obj 340 267 hicuSwitch 12;
#X obj 82 196 hicuSwitch 4;
#X obj 67 217 hicuSwitch 3;
#X obj 57 238 hicuSwitch 2;
#X obj 511 202 hicuSwitch 13;
#X obj 496 223 hicuSwitch 14;
#X obj 486 244 hicuSwitch 15;
#X obj 64 395 onebang;
#X obj 103 374 loadbang;
#X obj 64 435 f;
#X obj 79 414 r nbPage;
#X obj 64 456 - 1;
#X msg 107 457 0;
#X obj 63 478 spigot 1;
#X msg -21 519 send /c \$1;
#X obj -21 541 s controlOSC;
#X obj -139 245 r p0a2;
#X obj -139 266 speedlim 250;
#X obj -139 313 s controlOSC;
#X msg -139 290 send /t \$1;
#X floatatom -36 285 5 0 0 0 - - -;
#X connect 0 0 42 0;
#X connect 1 0 41 0;
#X connect 2 0 5 0;
#X connect 2 1 53 0;
#X connect 2 1 75 0;
#X connect 3 0 5 0;
#X connect 3 1 8 0;
#X connect 3 1 76 0;
#X connect 5 0 6 0;
#X connect 6 0 4 0;
#X connect 6 0 21 0;
#X connect 6 0 77 0;
#X connect 8 0 5 1;
#X connect 9 0 12 0;
#X connect 9 1 14 0;
#X connect 10 0 12 0;
#X connect 10 1 15 0;
#X connect 12 0 13 0;
#X connect 13 0 11 0;
#X connect 13 0 40 0;
#X connect 14 0 12 1;
#X connect 15 0 12 1;
#X connect 16 0 12 0;
#X connect 17 0 16 0;
#X connect 20 0 32 0;
#X connect 20 1 34 0;
#X connect 20 2 31 0;
#X connect 20 3 35 0;
#X connect 20 4 33 0;
#X connect 20 5 23 0;
#X connect 20 6 24 0;
#X connect 20 7 22 0;
#X connect 22 0 57 0;
#X connect 22 1 56 0;
#X connect 22 2 59 0;
#X connect 22 3 58 0;
#X connect 22 4 64 0;
#X connect 22 5 65 0;
#X connect 22 6 66 0;
#X connect 22 7 55 0;
#X connect 23 0 29 0;
#X connect 23 1 30 0;
#X connect 23 2 68 0;
#X connect 23 3 67 0;
#X connect 23 4 63 0;
#X connect 23 5 62 0;
#X connect 23 6 61 0;
#X connect 23 7 60 0;
#X connect 24 0 69 0;
#X connect 24 1 50 0;
#X connect 25 0 31 1;
#X connect 26 0 31 2;
#X connect 27 0 34 1;
#X connect 28 0 34 2;
#X connect 29 0 49 0;
#X connect 30 0 48 0;
#X connect 36 0 17 0;
#X connect 37 0 9 0;
#X connect 38 0 10 0;
#X connect 39 0 13 1;
#X connect 43 0 6 1;
#X connect 46 0 2 0;
#X connect 47 0 3 0;
#X connect 53 0 5 1;
#X connect 54 0 5 0;
#X connect 70 0 72 0;
#X connect 71 0 70 1;
#X connect 72 0 74 0;
#X connect 73 0 72 1;
#X connect 74 0 5 0;
#X connect 75 0 76 1;
#X connect 76 0 70 0;
#X connect 77 0 78 0;
#X connect 79 0 80 0;
#X connect 82 0 81 0;
#X connect 83 0 82 0;
#X restore -1154 -695 pd hicu;
#N canvas 370 175 875 550 tuner 0;
#X obj -423 -374 cnv 15 5 5 empty empty E2:82.41Hz 20 12 0 18 -233017
-66577 0;
#X obj -423 -354 cnv 15 5 5 empty empty A2:110Hz 20 12 0 18 -233017
-66577 0;
#X obj -423 -334 cnv 15 5 5 empty empty D3:146.8Hz 20 12 0 18 -233017
-66577 0;
#X obj -423 -314 cnv 15 5 5 empty empty G3:196Hz 20 12 0 18 -233017
-66577 0;
#X obj -423 -294 cnv 15 5 5 empty empty B3:246.9Hz 20 12 0 18 -233017
-66577 0;
#X obj -423 -274 cnv 15 5 5 empty empty E4:329.6Hz 20 12 0 18 -233017
-66577 0;
#X obj -677 -293 fiddle~;
#X obj -651 -269 unpack f f;
#X obj -660 -386 loadbang;
#X msg -644 -337 amp-range 38 86;
#X msg -643 -359 npoints 2048;
#X obj -506 -342 osc~ 333;
#X floatatom -506 -376 5 0 0 0 - - -;
#X obj -545 -265 mtof;
#X obj -546 -233 median_7;
#X floatatom -567 -128 5 0 0 0 - - -;
#X floatatom -524 -128 5 0 0 0 - - -;
#X symbolatom -638 -129 10 0 0 0 - - -;
#X obj -482 -127 maxlib/scale -50 50 0 1;
#X obj -482 -55 s \$0-controlOSC;
#X msg -482 -80 send /tuning \$1;
#X obj -482 -102 change;
#X obj -589 -166 fton 440;
#X text -484 -151 between -0.1 and 0.1 = green slider;
#X connect 6 2 7 0;
#X connect 7 0 13 0;
#X connect 8 0 9 0;
#X connect 8 0 10 0;
#X connect 9 0 6 0;
#X connect 10 0 6 0;
#X connect 11 0 6 0;
#X connect 12 0 11 0;
#X connect 13 0 22 0;
#X connect 18 0 21 0;
#X connect 20 0 19 0;
#X connect 21 0 20 0;
#X connect 22 0 17 0;
#X connect 22 1 15 0;
#X connect 22 2 16 0;
#X connect 22 2 18 0;
#X restore -999 -699 pd tuner;
#N canvas 162 90 1044 671 output 0;
#X obj -257 237 mtl/limit~;
#X obj -249 170 unpack 0 0 0;
#X obj -249 147 prvu~;
#X obj -215 192 > 0;
#X obj -215 216 tgl 15 0 empty empty empty 17 7 0 10 -262144 -1 -1
1 1;
#X obj -257 282 demultiplex~ . .;
#X obj -144 284 demultiplex~ . .;
#X text -193 214 clip;
#X obj -240 534 dac~ 1 2;
#X obj -163 320 *~ 0.5;
#X obj -144 243 tgl 15 0 empty empty empty 17 7 0 10 -262144 -1 -1
0 1;
#X text -127 241 stereo / mono;
#X obj -257 -15 iemlib/hml_shelf~ 0 200 0 4000 0 50;
#X obj -36 -14 iemlib/hml_shelf~ 0 200 0 4000 0 50;
#X text -257 -105 buses;
#X obj -256 -86 catchsend~ mainOutL;
#X obj -133 -86 catchsend~ mainOutR;
#X obj -256 -60 receive~ mainOutL;
#X obj -163 169 unpack 0 0 0;
#X obj -163 146 prvu~;
#X obj -129 191 > 0;
#X obj -129 215 tgl 15 0 empty empty empty 17 7 0 10 -262144 -1 -1
1 1;
#X text -107 213 clip;
#X obj -37 -64 receive~ mainOutR;
#X obj -16 71 vsl 20 100 -40 40 0 0 empty empty empty 0 -9 0 10 -262144
-1 -1 7000 1;
#X obj 72 65 vsl 20 100 -40 40 0 0 empty empty empty 0 -9 0 10 -262144
-1 -1 4950 1;
#X obj 156 66 vsl 20 100 -40 40 0 0 empty empty empty 0 -9 0 10 -262144
-1 -1 4950 1;
#X obj -258 102 mtl/compress~;
#X msg 16 31 0;
#X obj 171 -40 r interpolateMs;
#X obj 472 -70 hradio 15 1 0 8 empty empty empty 0 -8 0 10 -262144
-1 -1 0;
#X obj 530 43 hradio 15 1 0 8 empty empty empty 0 -8 0 10 -262144 -1
-1 0;
#X obj 447 -91 bng 15 250 50 0 empty empty empty 17 7 0 10 -262144
-1 -1;
#X obj 504 19 bng 15 250 50 0 empty empty empty 17 7 0 10 -262144 -1
-1;
#X floatatom 472 -46 5 0 0 0 - - -;
#X floatatom 530 65 5 0 0 0 - - -;
#X obj 447 90 param file;
#X text 512 -48 Save to "preset" file n.;
#X text 568 64 Restore for "preset" file n.;
#X text 526 17 Restore from "main" param file.;
#X text 469 -95 Save to "main" param file.;
#X obj 449 119 cnv 15 200 20 empty empty /compress~/ 2 12 0 8 -258401
-262144 0;
#X obj 449 142 hsl 100 15 1 10 0 0 /compress~/ratio /compress~/ratio_
ratio 105 7 0 8 -262144 -1 -1 0 1;
#X obj 449 160 hsl 100 15 -60 0 0 0 /compress~/threshold /compress~/threshold_
threshold 105 7 0 8 -262144 -1 -1 9900 1;
#X obj 449 178 hsl 100 15 1 300 0 0 /compress~/attack /compress~/attack_
attack 105 7 0 8 -262144 -1 -1 298 1;
#X obj 449 196 hsl 100 15 5 3000 0 0 /compress~/release /compress~/release_
release 105 7 0 8 -262144 -1 -1 512 1;
#X obj 449 214 tgl 15 0 /compress~/switch /compress~/switch_ switch
17 7 0 8 -262144 -166441 -1 0 1;
#X obj 449 232 hsl 100 15 -20 30 0 0 /compress~/gain /compress~/gain_
gain 105 7 0 8 -262144 -1 -1 3960 1;
#X obj -117 320 *~ 0.5;
#X text 635 158 bas threshold;
#X text 633 145 haut threshold;
#X obj -203 475 vline~;
#X obj -239 505 *~;
#X obj -155 475 vline~;
#X obj -191 505 *~;
#X obj -97 403 r interpolateMs;
#X obj -142 425 pack f f;
#X msg -142 447 \$1 \$2;
#X obj 9 389 vsl 15 128 0.01 1.01 1 0 empty empty empty 0 -9 0 10 -262144
-1 -1 12700 1;
#X obj 216 248 min 0;
#X obj 158 244 max 0;
#X obj 146 363 *~;
#X obj 160 341 line~;
#X msg 160 321 \$1 10;
#X obj 161 298 -;
#X msg 163 270 1 \$1;
#X obj 230 280 + 1;
#X obj 233 331 line~;
#X msg 233 311 \$1 10;
#X obj 158 210 tof/param /pan 0 /g slider -1 1;
#X obj 219 354 *~;
#X obj 163 190 hsl 128 15 -1 1 0 0 empty empty empty -2 -8 0 10 -262144
-1 -1 6350 1;
#X text 215 167 pan;
#X obj 465 384 env~ 8192;
#X floatatom 465 433 5 0 0 0 - - -;
#X msg 361 325 pd~ stop;
#X obj 465 409 i;
#X obj 579 382 env~ 8192;
#X floatatom 579 432 5 0 0 0 - - -;
#X obj 579 408 i;
#X obj 352 430 print x;
#X obj 352 353 pd~ -ninsig 2 -noutsig 2 -fifo 20;
#X msg 352 302 pd~ start effectUnit.pd;
#X obj -171 123 hip~ 3;
#X obj -257 124 hip~ 3;
#X obj 9 550 - 0.01;
#X obj 256 159 ii 0;
#X obj 58 26 loadbang;
#X obj 9 368 ii 1.01;
#X obj -226 -37 fromOSC eqLow;
#X obj -141 -36 fromOSC eqMid;
#X obj -54 -36 fromOSC eqHigh;
#X connect 0 0 5 0;
#X connect 0 1 6 0;
#X connect 1 1 3 0;
#X connect 2 0 1 0;
#X connect 3 0 4 0;
#X connect 5 0 61 0;
#X connect 5 1 9 0;
#X connect 6 0 70 0;
#X connect 6 1 48 0;
#X connect 9 0 52 0;
#X connect 10 0 5 0;
#X connect 10 0 6 0;
#X connect 12 0 27 0;
#X connect 13 0 27 1;
#X connect 17 0 12 0;
#X connect 18 1 20 0;
#X connect 19 0 18 0;
#X connect 20 0 21 0;
#X connect 23 0 13 0;
#X connect 24 0 12 1;
#X connect 24 0 13 1;
#X connect 25 0 12 3;
#X connect 25 0 13 3;
#X connect 26 0 13 5;
#X connect 26 0 12 5;
#X connect 27 0 84 0;
#X connect 27 1 83 0;
#X connect 28 0 24 0;
#X connect 28 0 25 0;
#X connect 28 0 26 0;
#X connect 29 0 13 6;
#X connect 29 0 12 6;
#X connect 30 0 34 0;
#X connect 31 0 35 0;
#X connect 32 0 36 0;
#X connect 33 0 36 1;
#X connect 34 0 36 0;
#X connect 35 0 36 1;
#X connect 48 0 52 0;
#X connect 51 0 52 1;
#X connect 52 0 8 0;
#X connect 53 0 54 1;
#X connect 54 0 8 1;
#X connect 55 0 56 1;
#X connect 56 0 57 0;
#X connect 57 0 53 0;
#X connect 57 0 51 0;
#X connect 58 0 85 0;
#X connect 59 0 66 0;
#X connect 60 0 65 0;
#X connect 61 0 52 0;
#X connect 62 0 61 1;
#X connect 63 0 62 0;
#X connect 64 0 63 0;
#X connect 65 0 64 0;
#X connect 66 0 68 0;
#X connect 67 0 70 1;
#X connect 68 0 67 0;
#X connect 69 0 60 0;
#X connect 69 0 59 0;
#X connect 70 0 54 0;
#X connect 71 0 60 0;
#X connect 71 0 59 0;
#X connect 73 0 76 0;
#X connect 75 0 81 0;
#X connect 76 0 74 0;
#X connect 77 0 79 0;
#X connect 79 0 78 0;
#X connect 81 0 80 0;
#X connect 81 1 73 0;
#X connect 81 2 77 0;
#X connect 82 0 81 0;
#X connect 83 0 19 0;
#X connect 83 0 0 1;
#X connect 84 0 0 0;
#X connect 84 0 2 0;
#X connect 85 0 56 0;
#X connect 86 0 71 0;
#X connect 87 0 28 0;
#X connect 88 0 58 0;
#X connect 89 0 12 1;
#X connect 89 0 13 1;
#X connect 90 0 12 3;
#X connect 90 0 13 3;
#X connect 91 0 13 5;
#X connect 91 0 12 5;
#X restore -998 -471 pd output;
#X text -181 -795 dsp ON/OFF;
#X obj -202 -776 dsp;
#X floatatom -202 -755 4 0 0 0 - - -;
#X text -171 -754 % cpu;
#X obj -202 -794 tgl 15 0 empty empty empty 0 -6 0 8 -262144 -1 -1
1 1;
#N canvas 1 77 450 300 tocheck 0;
#X text 199 85 pd~ for rack;
#X text 196 152 readanysf number of block (smaller than 8 ok);
#X text 200 223 slowing doiwn a ramp for volume;
#N canvas 0 22 450 300 (subpatch) 0;
#X array \$0-curve 200 float 0;
#X coords 0 1 199 0 200 200 1;
#X restore 556 411 graph;
#N canvas 784 77 427 417 draw_array 0;
#X msg 54 82 bang;
#X obj 54 103 until;
#X text 85 82 start;
#X obj 54 125 f;
#X obj 83 125 + 1;
#X obj 54 43 loadbang;
#X obj 54 180 trigger float float;
#X obj 127 127 select 0;
#X obj 53 313 tabwrite \$0-curve;
#X obj 138 9 inlet;
#X obj 153 32 send \$0-to-numbox;
#X obj 139 53 trigger bang float;
#X obj 83 147 mod 200;
#X obj 54 257 / 200;
#X text 96 257 mapping output range: 0 to 1;
#X obj 53 283 mapping/curve;
#X connect 0 0 1 0;
#X connect 1 0 3 0;
#X connect 3 0 4 0;
#X connect 3 0 6 0;
#X connect 4 0 12 0;
#X connect 5 0 0 0;
#X connect 6 0 13 0;
#X connect 6 1 8 1;
#X connect 7 0 1 1;
#X connect 9 0 10 0;
#X connect 9 0 11 0;
#X connect 11 0 0 0;
#X connect 11 1 15 1;
#X connect 12 0 3 1;
#X connect 12 0 7 0;
#X connect 13 0 15 0;
#X connect 15 0 8 0;
#X restore 404 483 pd draw_array;
#X obj 406 452 hsl 128 15 -1 1 0 0 empty empty empty -2 -6 0 8 -262144
-1 -1 6731 0;
#X obj 382 511 s llcurve;
#X obj 408 404 init.lf 0.06;
#X obj 220 511 mapping/curve;
#X obj 295 484 r llcurve;
#X obj 218 486 max 0;
#X floatatom 218 446 5 0 0 0 - - -;
#X connect 5 0 4 0;
#X connect 5 0 6 0;
#X connect 7 0 5 0;
#X connect 9 0 8 1;
#X connect 10 0 8 0;
#X connect 11 0 10 0;
#X restore -1154 -662 pd tocheck;
#N canvas 1 77 450 300 fluid 0;
#N canvas 341 479 1018 282 fluid 0;
#X obj 772 68 inlet;
#X obj 772 136 s \$0-iiwu;
#X obj 772 94 l2s;
#X msg 772 116 load \$1;
#X obj 81 93 r \$0-iiwu;
#X obj 81 113 fluid~;
#X obj 294 136 s \$0-iiwu;
#X msg 294 114 note 1 \$1 0;
#X obj 294 93 iterate;
#X msg 294 73 128;
#X obj 412 139 s \$0-iiwu;
#X msg 412 92 prog 1 \$1;
#X msg 518 85 bank 1 \$1;
#X floatatom 518 66 5 0 0 0 - - -;
#X text 518 106 bank select;
#X text 291 15 PANIC;
#X obj 294 52 t b;
#X obj 81 144 outlet~;
#X obj 130 144 outlet~;
#X obj 412 66 r \$0-fluidpreset;
#X obj 294 31 r \$0-fluidpanic;
#X connect 0 0 2 0;
#X connect 2 0 3 0;
#X connect 3 0 1 0;
#X connect 4 0 5 0;
#X connect 5 0 17 0;
#X connect 5 1 18 0;
#X connect 7 0 6 0;
#X connect 8 0 7 0;
#X connect 9 0 8 0;
#X connect 11 0 10 0;
#X connect 12 0 10 0;
#X connect 13 0 12 0;
#X connect 16 0 9 0;
#X connect 19 0 11 0;
#X connect 20 0 16 0;
#X restore 63 93 pd fluid;
#X obj 60 127 bng 15 250 50 0 empty empty panic 17 7 0 10 -258113 -1
-1;
#X obj 60 145 s \$0-fluidpanic;
#X connect 1 0 2 0;
#X restore -1153 -638 pd fluid;
#N canvas 56 77 1288 682 sampler 0;
#X msg -376 -62 play;
#X msg -295 -63 pause;
#X msg -430 36 open \$1;
#X msg -336 -63 stop;
#X msg -249 -64 time_seek \$1;
#X obj -270 52 route ready samplerate length cache float bang;
#X obj -270 78 sel 1;
#X obj -212 80 random;
#X obj -270 102 t b b;
#X msg -63 -332 fetch;
#X obj -133 -335 t a;
#X obj -435 -348 pyext search file;
#X text -411 -88 READANYSF~ PLAYBACK ANY KIND OF SOUNDFILE;
#X obj -430 -121 packel 3;
#X text -440 -264 PICK RANDOM;
#X obj -331 -213 list prepend;
#X obj -249 -213 t l;
#X obj -352 -167 list length;
#X obj -385 -145 random;
#X obj -434 -167 t b a;
#X obj -434 -416 loadbang;
#X msg -133 -399 wav;
#X obj -434 -393 t b b b;
#X text -46 71 end;
#X obj -133 -377 l2s;
#X msg -133 -355 ext \$1;
#X msg -434 -372 set /home/psc/11h11/oreilles/sample/freesound/;
#X text -434 -448 RECURSIVE SEARCH OF SFX;
#X msg 466 -328 fetch;
#X obj 396 -331 t a;
#X obj 125 -342 pyext search file;
#X obj 130 -134 packel 3;
#X text 120 -277 PICK RANDOM;
#X obj 229 -226 list prepend;
#X obj 311 -226 t l;
#X obj 208 -180 list length;
#X obj 175 -158 random;
#X obj 126 -180 t b a;
#X obj 126 -410 loadbang;
#X obj 126 -387 t b b b;
#X obj 396 -373 l2s;
#X msg 396 -351 ext \$1;
#X text 126 -442 RECURSIVE SEARCH OF MUSIC;
#X obj -352 -190 list;
#X obj 207 -203 list;
#X msg 184 -57 play;
#X msg 265 -58 pause;
#X msg 130 41 open \$1;
#X msg 224 -58 stop;
#X msg 311 -59 time_seek \$1;
#X obj 290 57 route ready samplerate length cache float bang;
#X obj 290 83 sel 1;
#X obj 348 85 random;
#X obj 290 107 t b b;
#X text 514 76 end;
#X text 152 -82 READANYSF~ PLAYBACK ANY KIND OF SOUNDFILE;
#X msg 396 -395 mp3;
#X msg 126 -367 set /home/psc/11h11/oreilles/music;
#X obj -429 132 throw~ mainOutL;
#X obj -330 132 throw~ mainOutR;
#X obj 129 141 throw~ mainOutL;
#X obj 228 141 throw~ mainOutR;
#X obj 130 86 readanysf~ 2;
#X obj -429 80 readanysf~ 2;
#X obj -186 -135 loadbang;
#X obj -186 -112 delay 400;
#X obj 671 -240 r v3_out;
#X obj -371 -240 r v2_out;
#X msg 947 -315 fetch;
#X obj 877 -318 t a;
#X obj 606 -329 pyext search file;
#X obj 611 -121 packel 3;
#X text 601 -264 PICK RANDOM;
#X obj 710 -213 list prepend;
#X obj 792 -213 t l;
#X obj 689 -167 list length;
#X obj 656 -145 random;
#X obj 607 -167 t b a;
#X obj 607 -397 loadbang;
#X obj 607 -374 t b b b;
#X obj 877 -360 l2s;
#X msg 877 -338 ext \$1;
#X obj 688 -190 list;
#X msg 665 -44 play;
#X msg 746 -45 pause;
#X msg 611 54 open \$1;
#X msg 705 -45 stop;
#X msg 792 -46 time_seek \$1;
#X obj 771 70 route ready samplerate length cache float bang;
#X obj 771 96 sel 1;
#X obj 829 98 random;
#X obj 771 120 t b b;
#X text 995 89 end;
#X text 633 -69 READANYSF~ PLAYBACK ANY KIND OF SOUNDFILE;
#X obj 610 154 throw~ mainOutL;
#X obj 709 154 throw~ mainOutR;
#X obj 611 99 readanysf~ 2;
#X text 607 -429 RECURSIVE SEARCH OF PERC;
#X obj 602 -240 r \$0-p1b6;
#X msg 877 -382 wav;
#X msg 1437 -321 fetch;
#X obj 1367 -324 t a;
#X obj 1096 -335 pyext search file;
#X obj 1101 -127 packel 3;
#X text 1091 -270 PICK RANDOM;
#X obj 1200 -219 list prepend;
#X obj 1282 -219 t l;
#X obj 1179 -173 list length;
#X obj 1146 -151 random;
#X obj 1097 -173 t b a;
#X obj 1097 -403 loadbang;
#X obj 1097 -380 t b b b;
#X obj 1367 -366 l2s;
#X msg 1367 -344 ext \$1;
#X obj 1178 -196 list;
#X msg 1155 -50 play;
#X msg 1236 -51 pause;
#X msg 1101 48 open \$1;
#X msg 1195 -51 stop;
#X msg 1282 -52 time_seek \$1;
#X obj 1261 64 route ready samplerate length cache float bang;
#X obj 1261 90 sel 1;
#X obj 1319 92 random;
#X obj 1261 114 t b b;
#X text 1485 83 end;
#X text 1123 -75 READANYSF~ PLAYBACK ANY KIND OF SOUNDFILE;
#X obj 1100 148 throw~ mainOutL;
#X obj 1199 148 throw~ mainOutR;
#X obj 1101 93 readanysf~ 2;
#X text 1097 -435 RECURSIVE SEARCH OF PERC;
#X obj 1092 -246 r \$0-p1b6;
#X msg 1367 -388 wav;
#X obj 1161 -246 r v1_out;
#X msg 607 -354 set /home/psc/11h11/oreilles/sample/loop;
#X msg 1097 -360 set /home/psc/11h11/oreilles/sample/perc;
#X obj -1 -115 bng 15 250 50 0 empty empty empty 17 7 0 10 -262144
-1 -1;
#X obj 23 -163 bng 15 250 50 0 empty empty empty 17 7 0 10 -262144
-1 -1;
#X obj -42 -186 metro 444;
#X obj -42 -210 tgl 15 0 empty empty empty 17 7 0 10 -262144 -1 -1
0 1;
#X obj -41 -162 loadbang;
#X obj -41 -118 t b b;
#X obj -41 -141 delay 50;
#X obj 9 -209 r mms;
#X obj 23 -143 s p0b1;
#X text -44 -232 BENCHMARK SSD;
#X obj -438 -240 r p0b1;
#X obj 122 -253 r p0b2;
#X obj -41 -72 s p0b1;
#X obj 224 -106 r p0b2h;
#X connect 0 0 63 0;
#X connect 1 0 63 0;
#X connect 2 0 63 0;
#X connect 3 0 63 0;
#X connect 4 0 63 0;
#X connect 5 0 6 0;
#X connect 5 2 7 1;
#X connect 6 0 8 0;
#X connect 7 0 4 0;
#X connect 8 0 0 0;
#X connect 8 1 7 0;
#X connect 9 0 11 1;
#X connect 10 0 11 1;
#X connect 11 0 15 0;
#X connect 13 0 2 0;
#X connect 15 0 16 0;
#X connect 15 0 43 1;
#X connect 16 0 15 1;
#X connect 17 0 18 1;
#X connect 18 0 13 1;
#X connect 19 0 18 0;
#X connect 19 1 13 0;
#X connect 20 0 22 0;
#X connect 21 0 24 0;
#X connect 22 0 9 0;
#X connect 22 1 26 0;
#X connect 22 2 21 0;
#X connect 24 0 25 0;
#X connect 25 0 10 0;
#X connect 26 0 11 1;
#X connect 28 0 30 1;
#X connect 29 0 30 1;
#X connect 30 0 33 0;
#X connect 31 0 47 0;
#X connect 33 0 34 0;
#X connect 33 0 44 1;
#X connect 34 0 33 1;
#X connect 35 0 36 1;
#X connect 36 0 31 1;
#X connect 37 0 36 0;
#X connect 37 1 31 0;
#X connect 38 0 39 0;
#X connect 39 0 28 0;
#X connect 39 1 57 0;
#X connect 39 2 56 0;
#X connect 40 0 41 0;
#X connect 41 0 29 0;
#X connect 43 0 17 0;
#X connect 43 0 19 0;
#X connect 44 0 35 0;
#X connect 44 0 37 0;
#X connect 45 0 62 0;
#X connect 46 0 62 0;
#X connect 47 0 62 0;
#X connect 48 0 62 0;
#X connect 49 0 62 0;
#X connect 50 0 51 0;
#X connect 50 2 52 1;
#X connect 51 0 53 0;
#X connect 53 0 45 0;
#X connect 53 1 52 0;
#X connect 56 0 40 0;
#X connect 57 0 30 1;
#X connect 62 0 60 0;
#X connect 62 1 61 0;
#X connect 62 2 50 0;
#X connect 63 0 58 0;
#X connect 63 1 59 0;
#X connect 63 2 5 0;
#X connect 64 0 65 0;
#X connect 65 0 3 0;
#X connect 66 0 82 0;
#X connect 67 0 43 0;
#X connect 68 0 70 1;
#X connect 69 0 70 1;
#X connect 70 0 73 0;
#X connect 71 0 85 0;
#X connect 73 0 74 0;
#X connect 73 0 82 1;
#X connect 74 0 73 1;
#X connect 75 0 76 1;
#X connect 76 0 71 1;
#X connect 77 0 76 0;
#X connect 77 1 71 0;
#X connect 78 0 79 0;
#X connect 79 0 68 0;
#X connect 79 1 133 0;
#X connect 79 2 99 0;
#X connect 80 0 81 0;
#X connect 81 0 69 0;
#X connect 82 0 75 0;
#X connect 82 0 77 0;
#X connect 83 0 96 0;
#X connect 84 0 96 0;
#X connect 85 0 96 0;
#X connect 86 0 96 0;
#X connect 87 0 96 0;
#X connect 88 0 89 0;
#X connect 88 2 90 1;
#X connect 89 0 91 0;
#X connect 91 0 83 0;
#X connect 91 1 90 0;
#X connect 96 0 94 0;
#X connect 96 1 95 0;
#X connect 96 2 88 0;
#X connect 98 0 82 0;
#X connect 99 0 80 0;
#X connect 100 0 102 1;
#X connect 101 0 102 1;
#X connect 102 0 105 0;
#X connect 103 0 117 0;
#X connect 105 0 106 0;
#X connect 105 0 114 1;
#X connect 106 0 105 1;
#X connect 107 0 108 1;
#X connect 108 0 103 1;
#X connect 109 0 108 0;
#X connect 109 1 103 0;
#X connect 110 0 111 0;
#X connect 111 0 100 0;
#X connect 111 1 134 0;
#X connect 111 2 131 0;
#X connect 112 0 113 0;
#X connect 113 0 101 0;
#X connect 114 0 107 0;
#X connect 114 0 109 0;
#X connect 115 0 128 0;
#X connect 116 0 128 0;
#X connect 117 0 128 0;
#X connect 118 0 128 0;
#X connect 119 0 128 0;
#X connect 120 0 121 0;
#X connect 120 2 122 1;
#X connect 121 0 123 0;
#X connect 123 0 115 0;
#X connect 123 1 122 0;
#X connect 128 0 126 0;
#X connect 128 1 127 0;
#X connect 128 2 120 0;
#X connect 130 0 114 0;
#X connect 131 0 112 0;
#X connect 132 0 114 0;
#X connect 133 0 70 1;
#X connect 134 0 102 1;
#X connect 135 0 147 0;
#X connect 136 0 143 0;
#X connect 137 0 136 0;
#X connect 137 0 135 0;
#X connect 138 0 137 0;
#X connect 139 0 141 0;
#X connect 140 0 147 0;
#X connect 140 1 147 0;
#X connect 141 0 140 0;
#X connect 142 0 137 1;
#X connect 145 0 43 0;
#X connect 146 0 44 0;
#X connect 148 0 48 0;
#X restore -998 -655 pd sampler;
#X obj -205 -644 pgmin;
#X obj -204 -689 ctlin;
#X floatatom -205 -620 5 0 0 0 - - -;
#X floatatom -204 -665 5 0 0 0 - - -;
#X floatatom -170 -665 5 0 0 0 - - -;
#X floatatom -135 -665 5 0 0 0 - - -;
#X obj -203 -731 notein;
#X floatatom -203 -711 5 0 0 0 - - -;
#X floatatom -169 -711 5 0 0 0 - - -;
#X floatatom -134 -711 5 0 0 0 - - -;
#N canvas 1 77 450 300 drone 0;
#X restore -1151 -615 pd drone;
#N canvas 1 77 450 300 ezchrono 0;
#X restore -1150 -592 pd ezchrono;
#X obj -202 -816 ii 1;
#N canvas 1 77 692 603 documentation 0;
#X text 17 19 GLOBAL S/R:;
#X text 14 41 interpolationMs: between state \, for eq or anything
to interpolate between 2 values over time;
#X floatatom 17 75 5 0 0 0 - - -;
#X obj 17 95 s interpolateMs;
#X obj 52 74 ii 2200;
#X obj 118 95 r interpolateMs;
#X text 17 127 bmp / mb / mms: master pulse / bpm (in ms);
#X obj 17 177 s bpm;
#X obj 100 155 r mb;
#X obj 136 156 r mms;
#X obj 60 155 r bpm;
#X floatatom 17 157 5 0 0 0 - - -;
#X text 15 226 number of page (control osc);
#X obj 203 247 ii 10;
#X text 201 226 number of states (should be dynamic);
#X obj 82 354 r v3_out;
#X obj 152 356 r v2_out;
#X obj 17 352 r v1_out;
#X text 12 330 generator drum;
#X text 16 387 hicu;
#X obj 352 93 s debounce;
#X text 350 41 debounce hicu;
#X obj 352 67 ii 250;
#X obj 16 295 s currentPage;
#X obj 17 269 s nbPage;
#X obj 202 269 s nbState;
#X obj 204 292 s currentState;
#X obj 76 412 r p0a2;
#X text 18 410 analog:;
#X text 127 412 (page 0 analog 2);
#X text 20 441 digital:;
#X obj 76 442 r p0b2;
#X text 126 443 (page 0 switch 2);
#X obj 79 503 r p0b2;
#X obj 78 472 r p0b2h;
#X text 128 473 (page 0 switch 2 hold release);
#X text 129 504 (page 0 switch 2 double click);
#X text 554 42 doubleClick hicu;
#X text 447 43 holdFor hicu;
#X obj 450 95 s holdFor;
#X obj 556 94 s doubleClick;
#X obj 450 69 ii 750;
#X obj 556 68 ii 175;
#X obj 17 247 ii 4;
#X connect 2 0 3 0;
#X connect 4 0 2 0;
#X connect 11 0 7 0;
#X connect 13 0 25 0;
#X connect 22 0 20 0;
#X connect 41 0 39 0;
#X connect 42 0 40 0;
#X connect 43 0 24 0;
#X restore -1152 -564 pd documentation;
#X obj -107 -553 bng 15 250 50 0 empty empty empty 17 7 0 10 -262144
-1 -1;
#X floatatom -206 -595 5 0 0 0 - - -;
#X obj -107 -533 s mb;
#X obj -157 -533 s mms;
#X obj -170 -594 r bpm;
#X obj -206 -575 mtl/clkMaster 120;
#X obj -996 -496 adcInput~ 1;
#N canvas 522 194 450 300 generator 0;
#N canvas 130 175 416 264 engine 0;
#N canvas 144 87 295 364 startup 0;
#X obj 19 12 loadbang;
#X msg 25 99 120;
#X obj 23 250 select 1 0;
#X obj 23 215 r start_stop;
#X obj 15 284 s s_st;
#X obj 76 284 s s_stp;
#X msg 73 55 1;
#X obj 73 83 s def_m_ch;
#X msg 104 38 2;
#X obj 144 62 s hat_range;
#X obj 114 131 s mute_s;
#X obj 124 153 s mute_b;
#X obj 135 177 s mute_h;
#X msg 36 62 0;
#X msg 19 155 100;
#X obj 19 183 s vol;
#X obj 25 130 s tempo_chg;
#X obj 192 112 s zero_st;
#X obj 75 108 delay 2000;
#X msg 193 90 0;
#X connect 0 0 6 0;
#X connect 0 0 1 0;
#X connect 0 0 8 0;
#X connect 0 0 13 0;
#X connect 0 0 15 0;
#X connect 0 0 18 0;
#X connect 1 0 16 0;
#X connect 2 0 4 0;
#X connect 2 1 5 0;
#X connect 3 0 2 0;
#X connect 6 0 7 0;
#X connect 8 0 9 0;
#X connect 13 0 10 0;
#X connect 13 0 11 0;
#X connect 13 0 12 0;
#X connect 18 0 19 0;
#X connect 19 0 17 0;
#X restore 9 164 pd startup;
#N canvas 111 164 538 398 voice1 0;
#X obj 230 333 / 16;
#X obj 133 75 loadbang;
#X obj 23 102 s v1_out_b;
#X obj 138 293 spigot;
#X obj 112 198 r mute_s;
#X obj 136 151 delay;
#X obj 306 61 r del_s;
#X obj 377 89 delay;
#X msg 306 106 1;
#X msg 343 113 0;
#X obj 284 31 r measure_16th;
#X obj 387 56 r measure_half;
#X obj 10 201 r v1_improv;
#X obj 220 281 spigot;
#X obj 211 163 r arpegg2;
#X msg 251 252 1;
#X msg 368 222 0;
#X obj 244 221 delay;
#X obj 138 322 s v1_out;
#X obj 290 223 loadbang;
#X obj 279 192 r measure_quarter;
#X obj 197 24 bng 18 250 50 0 del_s empty delay_16th -20 30 0 7 -262144
-1 -1;
#X text 147 6 optional control;
#X obj 230 359 s midi_v1;
#X obj 281 306 r measure_interval;
#X text 281 334 MIDI note length;
#X text 329 252 Arpeggiator mutes the;
#X text 331 268 monorhythm output for a;
#X text 331 285 quarter note;
#X text 39 292 snare mute->;
#X obj 241 125 i 0;
#X obj 25 54 select 4 12;
#X obj 22 7 r cnt_16;
#X obj 114 236 expr 1-$f1;
#X obj 183 121 * 0;
#X obj 203 90 t f b;
#X obj 235 308 f;
#X obj 382 117 r st_stp;
#X connect 0 0 23 0;
#X connect 1 0 30 0;
#X connect 3 0 18 0;
#X connect 4 0 33 0;
#X connect 5 0 13 0;
#X connect 6 0 8 0;
#X connect 6 0 7 0;
#X connect 7 0 9 0;
#X connect 8 0 35 0;
#X connect 9 0 35 0;
#X connect 10 0 30 1;
#X connect 11 0 7 1;
#X connect 12 0 3 0;
#X connect 12 0 36 0;
#X connect 13 0 3 0;
#X connect 13 0 36 0;
#X connect 14 0 16 0;
#X connect 14 0 17 0;
#X connect 15 0 13 1;
#X connect 16 0 13 1;
#X connect 17 0 15 0;
#X connect 19 0 15 0;
#X connect 20 0 17 1;
#X connect 24 0 36 1;
#X connect 30 0 34 0;
#X connect 31 0 2 0;
#X connect 31 0 5 0;
#X connect 31 1 2 0;
#X connect 31 1 5 0;
#X connect 32 0 31 0;
#X connect 33 0 3 1;
#X connect 34 0 5 1;
#X connect 35 0 34 1;
#X connect 35 1 30 0;
#X connect 36 0 0 0;
#X connect 37 0 9 0;
#X restore 13 48 pd voice1;
#N canvas 451 77 492 612 interval 0;
#X obj 68 332 s measure_interval;
#X obj 25 49 t b f;
#X floatatom 21 152 8 0 0 0 - - -;
#X obj 63 436 s measure_quarter;
#X obj 61 468 / 2;
#X obj 61 491 s measure_8th;
#X obj 61 521 / 2;
#X obj 61 549 s measure_16th;
#X obj 4 -35 loadbang;
#X obj 4 -5 delay 65;
#X obj 67 386 s measure_half;
#X obj 61 359 / 2;
#X obj 26 218 *;
#X obj 218 -35 r orig_tempo;
#X obj 254 -3 r half_tempo;
#X obj 29 174 t b f;
#X msg 182 92 set 2;
#X msg 127 89 set 1;
#X floatatom 123 122 5 0 0 0 - - -;
#X floatatom 175 137 5 0 0 0 - - -;
#X obj 248 92 spigot;
#X obj 293 117 spigot;
#X msg 386 91 0;
#X msg 291 65 1;
#X msg 336 89 1;
#X obj 358 63 delay 1000;
#X obj 263 40 r clock_quarter;
#X obj 322 -33 r measure_quarter;
#X obj 109 161 t b f;
#X obj 62 413 / 2;
#X obj 24 100 /;
#X msg 24 75 60;
#X text 174 218 divided by 60;
#X text 174 239 times 4000 is;
#X text 175 260 a whole note time frame;
#X text 175 282 since bpm measures quarter notes;
#X text 224 331 whole note time;
#X text 188 386 half note time;
#X text 206 436 quarter note time;
#X text 174 490 eighth note time;
#X text 182 547 sixteenth note time;
#X text 4 -96 Original Tempo/Half Tempo bangs: A combination of a gated
quarter note bang and number box set to the multiply value(1 or 2)
is included in the initial tempo calculation.;
#X text 5 119 quarter note;
#X text 37 133 time in ms;
#X text 2 198 orig/half time;
#X text 173 199 tempo/bpm value;
#X obj 104 -2 r s_st;
#X msg 105 27 1;
#X obj 17 281 bng 15 250 50 0 empty empty empty 0 -6 0 8 -262144 -1
-1;
#X obj 61 301 * 4000;
#X obj 83 -27 r bpm;
#X connect 1 0 31 0;
#X connect 1 1 30 1;
#X connect 2 0 12 0;
#X connect 2 0 15 0;
#X connect 4 0 5 0;
#X connect 4 0 7 0;
#X connect 4 0 6 0;
#X connect 6 0 7 0;
#X connect 8 0 9 0;
#X connect 8 0 17 0;
#X connect 9 0 2 0;
#X connect 9 0 18 0;
#X connect 11 0 10 0;
#X connect 11 0 29 0;
#X connect 12 0 48 0;
#X connect 12 0 49 0;
#X connect 13 0 2 0;
#X connect 13 0 17 0;
#X connect 13 0 25 0;
#X connect 13 0 23 0;
#X connect 14 0 16 0;
#X connect 14 0 2 0;
#X connect 14 0 24 0;
#X connect 14 0 25 0;
#X connect 15 0 12 0;
#X connect 16 0 19 0;
#X connect 17 0 18 0;
#X connect 18 0 28 0;
#X connect 19 0 28 0;
#X connect 20 0 18 0;
#X connect 21 0 19 0;
#X connect 22 0 21 1;
#X connect 22 0 20 1;
#X connect 23 0 20 1;
#X connect 24 0 21 1;
#X connect 25 0 22 0;
#X connect 26 0 20 0;
#X connect 26 0 21 0;
#X connect 27 0 25 1;
#X connect 28 0 12 0;
#X connect 28 1 12 1;
#X connect 29 0 3 0;
#X connect 29 0 4 0;
#X connect 30 0 2 0;
#X connect 31 0 30 0;
#X connect 46 0 47 0;
#X connect 47 0 18 0;
#X connect 48 0 11 0;
#X connect 48 0 29 0;
#X connect 48 0 4 0;
#X connect 48 0 6 0;
#X connect 48 0 49 0;
#X connect 49 0 0 0;
#X connect 49 0 11 0;
#X connect 50 0 1 0;
#X restore 102 164 pd interval;
#N canvas 68 34 416 462 voice2 0;
#X obj -70 47 r clock_8th;
#X obj 16 100 i 0;
#X obj 40 60 + 1;
#X obj 95 -10 r s_st;
#X msg 99 49 0;
#X obj 174 3 r man_hats_togg;
#X obj 75 148 spigot;
#X obj -67 -1 spigot;
#X obj 31 5 random;
#X obj -30 -50 r hat_range_i;
#X obj 75 302 spigot;
#X obj 75 328 s v2_out;
#X obj -3 183 r mute_h;
#X obj 192 220 s midi_v2;
#X obj 66 89 mod 5;
#N canvas 76 57 537 554 hat_min_clk 0;
#X obj -19 365 outlet;
#X obj -31 248 r clock_quarter;
#X obj 82 -84 r man_hats;
#X obj 10 -45 i 1;
#X obj 106 249 r clock_8th;
#X obj -13 297 spigot;
#X obj 119 300 spigot;
#X obj -34 -109 loadbang;
#X obj 216 -86 inlet;
#X obj 342 247 r clock_32nd;
#X obj 197 -13 spigot;
#X obj 133 -9 spigot;
#X obj 94 -51 expr 1-$f1;
#X obj 62 37 select 0 1 2 3 4 5;
#X obj 240 301 spigot;
#X obj 361 304 spigot;
#X obj 223 37 select 0 1 2 3 4 5;
#X msg -4 91 1 0 0 0 0 0;
#X msg 52 118 0 1 0 0 0 0;
#X msg 91 145 0 0 1 0 0 0;
#X msg 152 171 0 0 0 1 0 0;
#X msg 227 137 0 0 0 0 1 0;
#X msg 295 167 0 0 0 0 0 1;
#X obj 218 -54 spigot;
#X obj 273 -83 r man_hats_togg;
#X obj 319 -53 expr 1-$f1;
#X obj 273 -22 spigot;
#X obj -45 55 s man_hats_on;
#X msg -28 29 1;
#X obj -24 -5 < 1.2;
#X obj -8 404 r measure_interval;
#X obj 98 350 / 4;
#X obj 180 348 / 2;
#X obj 238 347 / 2;
#X obj 346 345 / 2;
#X obj 64 378 f;
#X obj 168 380 f;
#X obj 265 379 f;
#X obj 349 374 f;
#X obj 262 415 outlet;
#X obj 43 298 select 1;
#X obj 172 302 select 1;
#X obj 292 302 select 1;
#X obj 413 304 select 1;
#N canvas 70 46 302 259 offset_16 0;
#X obj 52 194 outlet;
#X obj 151 1 r measure_interval;
#X obj 115 50 / 16;
#X obj 40 49 random 2;
#X obj 30 151 spigot;
#X obj 103 150 spigot;
#X obj 134 104 f;
#X obj 168 34 r offset_16th;
#X obj 186 77 expr 1-$f1;
#X obj 45 115 delay;
#X obj 87 83 * 1;
#X obj 46 2 r clock_16th;
#X obj 13 -24 inlet;
#X obj 166 150 loadbang;
#X msg 182 124 0;
#X connect 1 0 2 0;
#X connect 2 0 6 1;
#X connect 2 0 10 0;
#X connect 3 0 10 1;
#X connect 4 0 0 0;
#X connect 5 0 0 0;
#X connect 7 0 8 0;
#X connect 7 0 5 1;
#X connect 8 0 4 1;
#X connect 9 0 5 0;
#X connect 10 0 9 1;
#X connect 11 0 3 0;
#X connect 11 0 10 0;
#X connect 12 0 9 0;
#X connect 12 0 4 0;
#X connect 13 0 14 0;
#X connect 14 0 8 0;
#X connect 14 0 5 1;
#X restore 16 334 pd offset_16;
#X obj 290 207 r clock_16th;
#X msg 260 -106 1;
#X obj 81 206 unpack f f f f f f;
#X connect 1 0 5 0;
#X connect 2 0 28 0;
#X connect 2 0 3 0;
#X connect 2 0 29 0;
#X connect 3 0 26 0;
#X connect 4 0 6 0;
#X connect 5 0 0 0;
#X connect 6 0 44 0;
#X connect 7 0 3 0;
#X connect 7 0 46 0;
#X connect 8 0 23 0;
#X connect 9 0 15 0;
#X connect 10 0 16 0;
#X connect 11 0 13 0;
#X connect 12 0 10 1;
#X connect 13 0 17 0;
#X connect 13 1 18 0;
#X connect 13 2 19 0;
#X connect 13 3 20 0;
#X connect 13 4 21 0;
#X connect 13 5 22 0;
#X connect 13 6 17 0;
#X connect 14 0 44 0;
#X connect 15 0 0 0;
#X connect 16 0 18 0;
#X connect 16 1 18 0;
#X connect 16 2 19 0;
#X connect 16 3 20 0;
#X connect 16 4 21 0;
#X connect 16 5 22 0;
#X connect 16 6 18 0;
#X connect 17 0 47 0;
#X connect 18 0 47 0;
#X connect 19 0 47 0;
#X connect 20 0 47 0;
#X connect 21 0 47 0;
#X connect 22 0 47 0;
#X connect 23 0 10 0;
#X connect 23 0 11 0;
#X connect 24 0 25 0;
#X connect 24 0 26 1;
#X connect 25 0 23 1;
#X connect 26 0 13 0;
#X connect 28 0 27 0;
#X connect 29 0 12 0;
#X connect 29 0 11 1;
#X connect 30 0 31 0;
#X connect 31 0 32 0;
#X connect 31 0 35 1;
#X connect 32 0 33 0;
#X connect 32 0 36 1;
#X connect 33 0 34 0;
#X connect 33 0 37 1;
#X connect 34 0 38 1;
#X connect 35 0 39 0;
#X connect 36 0 39 0;
#X connect 37 0 39 0;
#X connect 38 0 39 0;
#X connect 40 0 35 0;
#X connect 41 0 36 0;
#X connect 42 0 37 0;
#X connect 43 0 38 0;
#X connect 44 0 0 0;
#X connect 45 0 14 0;
#X connect 46 0 23 1;
#X connect 46 0 11 1;
#X connect 47 0 5 1;
#X connect 47 0 40 0;
#X connect 47 1 6 1;
#X connect 47 1 41 0;
#X connect 47 2 14 1;
#X connect 47 2 42 0;
#X connect 47 3 15 1;
#X connect 47 3 43 0;
#X connect 47 4 6 1;
#X restore 75 183 pd hat_min_clk;
#X msg 216 91 1;
#X msg 253 93 0;
#X obj 216 35 loadbang;
#X obj 253 60 r s_stp;
#X obj 131 80 expr 1-$f1;
#X obj -81 -93 r man_hats_togg;
#X obj 178 251 r hat_rest;
#X obj 163 283 delay;
#X obj 166 308 r measure_interval;
#X obj 178 332 / 8;
#X obj 18 219 expr 1-$f1;
#X obj 85 261 i 1;
#X msg 124 273 0;
#X msg -75 -46 1;
#X connect 0 0 1 0;
#X connect 0 0 8 0;
#X connect 1 0 6 0;
#X connect 1 0 2 0;
#X connect 2 0 14 0;
#X connect 3 0 4 0;
#X connect 3 0 16 0;
#X connect 4 0 1 1;
#X connect 5 0 4 0;
#X connect 5 0 20 0;
#X connect 6 0 15 0;
#X connect 7 0 2 1;
#X connect 8 0 2 1;
#X connect 9 0 7 0;
#X connect 9 0 14 1;
#X connect 9 0 8 1;
#X connect 10 0 11 0;
#X connect 12 0 26 0;
#X connect 14 0 1 1;
#X connect 15 0 10 0;
#X connect 15 1 13 0;
#X connect 16 0 6 1;
#X connect 17 0 6 1;
#X connect 18 0 16 0;
#X connect 18 0 29 0;
#X connect 19 0 17 0;
#X connect 20 0 6 1;
#X connect 21 0 7 1;
#X connect 22 0 23 0;
#X connect 22 0 28 0;
#X connect 23 0 27 0;
#X connect 24 0 25 0;
#X connect 25 0 23 1;
#X connect 26 0 10 1;
#X connect 26 0 27 1;
#X connect 27 0 10 1;
#X connect 28 0 10 1;
#X connect 29 0 7 1;
#X restore 149 49 pd voice2;
#N canvas 75 77 502 511 voice3 0;
#X obj 85 251 delay;
#X obj 26 2 r clock_8th;
#X obj 155 153 r measure_interval;
#X obj 82 87 t b f;
#X obj 91 121 <<;
#X obj 73 360 delay;
#X obj 23 117 + 1;
#X obj 9 145 int 0;
#X obj 11 175 mod 2;
#X obj 135 187 *;
#X obj 100 160 / 64;
#X obj 68 62 + 1;
#X text 126 5 BASS Drum depends on the;
#X text 180 272 Whole note delay is divided;
#X text 190 289 a bit randomly and then;
#X text 126 29 SNARE Drum to play by using;
#X text 127 54 its delayed output trigger;
#X text 193 308 delayed once more out of sync;
#X text 206 328 by an 8th note or not at all.;
#X obj 55 223 r v1_out_b;
#X text 271 380 to the next measure;
#X text 270 366 Some delays carry over;
#X text 272 410 hits in the next one;
#X text 271 395 which allows for multiple;
#X obj 26 442 s v3_out;
#X text 215 344 (mod 2 counter at upper-left);
#X obj 183 407 / 8;
#X obj 197 436 s midi_v3;
#X obj 45 31 random 6;
#X text 121 119 left shift 1-6 for factoring by 2;
#X obj 59 291 t f b;
#X obj 131 277 f;
#X obj 173 185 / 8;
#X obj 96 329 * 0;
#X text 142 234 <<-input is Snare Drum delayed one measure;
#X obj 58 115 i 2;
#X obj 128 343 r v3_auto;
#X obj 173 379 f;
#N canvas 57 43 452 390 v3manage 0;
#X obj 20 10 inlet;
#X obj 11 336 outlet;
#X obj 69 286 spigot;
#X obj -10 139 r mute_b;
#X obj 109 166 spigot;
#X msg 174 124 1;
#X msg 313 103 0;
#X obj 147 94 delay;
#X obj 209 90 loadbang;
#X obj 265 34 r arpegg1;
#X obj -8 238 r v3_improv;
#X obj 190 240 spigot;
#X obj 171 273 select 0;
#X obj 67 336 s snare_react;
#X text 17 285 mute->;
#X obj 185 10 r measure_half;
#X obj 156 306 spigot;
#X obj 312 174 random 2;
#X obj 312 200 select 0;
#X obj 21 92 r s_st;
#X obj 202 35 r hit_b;
#X obj 16 174 expr 1-$f1;
#X text 0 72 start kick;
#X obj 304 226 s snare_react;
#X obj 313 148 r hit_b;
#X obj 183 343 s v3_react;
#X obj 88 30 r v3_react;
#X obj 94 224 s v3_auto;
#N canvas 68 42 229 261 v3arpblocks 0;
#X obj 32 46 r arpegg_s4;
#X msg 21 158 0;
#X obj 50 79 delay;
#X msg 94 180 1;
#X obj 14 9 r arpegg_b4;
#X obj 133 46 r hit_b;
#X obj 78 106 r measure_half;
#X obj 111 156 loadbang;
#X obj 104 132 r s_st;
#X obj 22 217 outlet;
#X connect 0 0 1 0;
#X connect 0 0 2 0;
#X connect 1 0 9 0;
#X connect 2 0 3 0;
#X connect 3 0 9 0;
#X connect 4 0 1 0;
#X connect 4 0 2 0;
#X connect 5 0 2 0;
#X connect 5 0 1 0;
#X connect 6 0 2 1;
#X connect 7 0 3 0;
#X connect 8 0 3 0;
#X restore 246 273 pd v3arpblocks;
#N canvas 113 74 287 275 v3srgenr 0;
#X obj 17 167 + 1;
#X obj 0 142 int 0;
#X obj -1 20 r clock_8th;
#X obj 96 45 select 0;
#X obj 61 148 mod 4;
#X obj 20 99 random 4;
#X obj 98 18 r c_bar;
#X obj 165 45 loadbang;
#X obj 169 72 r s_st;
#X obj 192 21 r hit_b;
#X obj 143 107 i 0;
#X obj 0 202 outlet;
#X text 63 191 provides additional;
#X text 62 204 improv notes at random;
#X text 62 178 Counter;
#X obj 5 58 t b b;
#X connect 0 0 4 0;
#X connect 1 0 0 0;
#X connect 1 0 11 0;
#X connect 2 0 15 0;
#X connect 3 0 10 0;
#X connect 4 0 1 1;
#X connect 5 0 4 1;
#X connect 6 0 3 0;
#X connect 7 0 10 0;
#X connect 8 0 10 0;
#X connect 9 0 10 0;
#X connect 10 0 1 1;
#X connect 15 0 5 0;
#X connect 15 1 1 0;
#X restore 181 182 pd v3srgenr;
#N canvas 50 40 328 174 v3srsw 0;
#X obj 32 63 random 2;
#X obj 32 37 delay;
#X obj 88 9 r measure_16th;
#X obj -8 9 r clock_8th;
#X obj 15 130 outlet;
#X obj 244 66 delay 80;
#X obj 222 41 r s_st;
#X msg 208 82 0;
#X msg 236 104 1;
#X obj 209 9 loadbang;
#X connect 0 0 4 0;
#X connect 1 0 0 0;
#X connect 2 0 1 1;
#X connect 3 0 1 0;
#X connect 5 0 8 0;
#X connect 6 0 5 0;
#X connect 6 0 7 0;
#X connect 7 0 4 0;
#X connect 8 0 4 0;
#X connect 9 0 7 0;
#X connect 9 0 5 0;
#X restore 220 209 pd v3srsw;
#X obj 234 314 s v3sr;
#X obj 344 34 r v3sr;
#X connect 0 0 4 0;
#X connect 2 0 1 0;
#X connect 3 0 21 0;
#X connect 4 0 2 0;
#X connect 4 0 27 0;
#X connect 5 0 4 1;
#X connect 6 0 4 1;
#X connect 7 0 5 0;
#X connect 8 0 5 0;
#X connect 9 0 6 0;
#X connect 9 0 7 0;
#X connect 10 0 2 0;
#X connect 11 0 12 0;
#X connect 12 0 16 0;
#X connect 12 0 31 0;
#X connect 15 0 7 1;
#X connect 16 0 2 0;
#X connect 16 0 13 0;
#X connect 16 0 25 0;
#X connect 17 0 18 0;
#X connect 18 0 23 0;
#X connect 19 0 4 0;
#X connect 20 0 7 0;
#X connect 20 0 6 0;
#X connect 21 0 2 1;
#X connect 24 0 17 0;
#X connect 26 0 7 0;
#X connect 28 0 16 1;
#X connect 29 0 11 0;
#X connect 30 0 11 1;
#X connect 32 0 6 0;
#X connect 32 0 7 0;
#X restore 26 395 pd v3manage;
#X connect 0 0 5 0;
#X connect 1 0 7 0;
#X connect 1 0 28 0;
#X connect 2 0 9 1;
#X connect 2 0 32 0;
#X connect 3 0 35 0;
#X connect 3 1 4 1;
#X connect 4 0 10 0;
#X connect 5 0 38 0;
#X connect 6 0 7 1;
#X connect 7 0 8 0;
#X connect 8 0 6 0;
#X connect 8 0 30 0;
#X connect 9 0 0 1;
#X connect 9 0 37 1;
#X connect 10 0 9 0;
#X connect 11 0 3 0;
#X connect 19 0 0 0;
#X connect 26 0 27 0;
#X connect 28 0 11 0;
#X connect 30 0 33 1;
#X connect 30 1 31 0;
#X connect 31 0 33 0;
#X connect 32 0 31 1;
#X connect 33 0 5 1;
#X connect 35 0 4 0;
#X connect 36 0 37 0;
#X connect 37 0 26 0;
#X connect 38 0 24 0;
#X restore 277 48 pd voice3;
#X text 17 11 SNARE DRUM;
#X text 277 11 BASS DRUM;
#N canvas 179 77 727 623 arpeggiation 0;
#X obj 27 592 s v1_improv;
#X obj 27 549 monorhythm;
#X msg -50 524 exclusive;
#X msg -50 495 start;
#X msg 0 495 stop;
#X obj 5 454 delay;
#X obj 30 806 monorhythm;
#X msg -47 763 exclusive;
#X msg -47 734 start;
#X msg 5 734 stop;
#X obj 5 708 delay;
#X obj 30 835 s v3_improv;
#X msg 282 -156 1 1 1 1;
#X msg 302 -178 1 1 1 1 1 1 1 1;
#X obj -71 618 cnv 15 120 20 empty empty empty 20 12 0 14 -24198 -66577
0;
#X text -61 618 ARPEGGIATORS;
#X text -71 805 BASS DRUM;
#X text -69 566 SNARE DRUM;
#X obj 1 -65 delay;
#X msg -46 -65 set 1;
#X msg 44 -65 set 0;
#X obj 91 46 select 0 1;
#X obj -7 6 delay;
#X msg -59 49 set 1;
#X msg 36 6 set 0;
#X obj 118 -27 select 0 1;
#X floatatom 10 -24 5 0 0 0 - - -;
#X floatatom 19 69 5 0 0 0 - - -;
#X obj 155 3 s arpegg1;
#X obj 128 81 s arpegg2;
#X obj -62 355 r arpegg2;
#X obj -60 645 r arpegg1;
#X obj 127 -173 r arpegg_b1;
#X obj 127 -174 r arpegg_b2;
#X obj 128 -173 r arpegg_b3;
#X obj 31 111 r arpegg_s1;
#X obj 30 112 r arpegg_s2;
#X obj 31 112 r arpegg_s3;
#X obj 408 208 s arpegg_s3;
#X obj 503 207 s arpegg_b3;
#X obj 408 184 r arpegg_both3;
#X obj 407 134 r arpegg_both2;
#X obj 407 158 s arpegg_s2;
#X obj 502 158 s arpegg_b2;
#X obj 132 -107 r measure_8th;
#X obj 407 82 r arpegg_both1;
#X obj 407 106 s arpegg_s1;
#X obj 502 108 s arpegg_b1;
#X obj 281 617 r measure_quarter;
#X floatatom 412 525 3 2 6 0 - - -;
#X obj 412 472 r hat_range;
#X obj 412 500 int;
#X obj 412 555 s hat_range_i;
#X obj 167 313 r arpegg_s1;
#X obj 186 343 r measure_16th;
#X obj -25 409 delay;
#X floatatom 39 361 5 0 0 0 - - -;
#X obj 35 390 t b f;
#X floatatom 167 411 5 0 0 0 - - -;
#X msg 221 400 0;
#X obj 344 726 r measure_16th;
#X floatatom 312 795 5 0 0 0 - - -;
#X msg 366 784 0;
#X obj -16 683 delay;
#X obj 208 437 s 8th_arpegg_delay_s;
#X obj -44 320 r 8th_arpegg_delay_s;
#X floatatom 90 695 5 0 0 0 - - -;
#X obj 81 720 t b f;
#X obj 312 696 r arpegg_b1;
#X obj 353 821 s 8th_arpegg_delay_b;
#X obj 39 652 r 8th_arpegg_delay_b;
#X obj 125 -69 r clock_8th;
#X text 444 498 convert hat range;
#X text 443 522 to an integer;
#X text 310 314 8th notes are a special case:;
#X text 311 345 They need an extra 16th note;
#X text 311 365 delay to be more flexible;
#X text 312 386 with the timing as you press;
#X obj 267 498 cnv 15 110 80 empty empty empty 20 12 0 14 -261689 -66577
0;
#X text 269 518 rigidly timed;
#X text 270 534 serve as;
#X text 270 547 arpeggiators;
#X text 288 111 32nd sequence;
#X text 215 137 16th sequence;
#X text 179 188 8th sequence;
#X text 435 -177 32nd sequence;
#X text 357 -155 16th sequence;
#X text 308 -128 8th sequence;
#X text 422 759 same as 8th note;
#X text 421 777 delay \, above;
#X text 270 502 Monorhythms;
#X msg -14 143 0;
#X obj -14 168 s mute_s;
#X msg 36 -162 0;
#X obj 1 -138 s mute_b;
#X obj 46 266 s arpegg_length_3;
#X obj 130 217 bng 15 250 50 0 empty empty empty 0 -6 0 8 -262144 -1
-1;
#X obj 112 217 bng 15 250 50 0 empty empty empty 0 -6 0 8 -262144 -1
-1;
#X obj 92 219 bng 15 250 50 0 empty empty empty 0 -6 0 8 -262144 -1
-1;
#X obj 473 -111 bng 15 250 50 0 empty empty empty 0 -6 0 8 -262144
-1 -1;
#X obj 455 -111 bng 15 250 50 0 empty empty empty 0 -6 0 8 -262144
-1 -1;
#X obj 435 -109 bng 15 250 50 0 empty empty empty 0 -6 0 8 -262144
-1 -1;
#X obj 240 -66 s arpegg_length_1;
#X text 421 612 sequence timing;
#X text 422 623 reference;
#X text 389 582 start-stop;
#X text 389 595 timing reference;
#X text -73 374 start trigger;
#X text -70 663 start trigger;
#X obj 198 374 delay;
#X obj 340 757 delay;
#X obj 89 341 r zero_st;
#X obj 122 672 r zero_st;
#X obj 165 730 r hit_b;
#X obj 199 804 select 0 1;
#X msg 160 791 set 1;
#X obj 185 773 delay;
#X msg 136 772 set 0;
#X floatatom 160 833 5 0 0 0 - - -;
#X obj 231 742 r clock_16th;
#X msg 211 704 0;
#X obj 228 723 s mute_b;
#X msg 159 113 1 1 1 1 1 1 1 1;
#X msg 139 135 1 1 1 1;
#X obj 29 112 r arpegg_s4;
#X text 177 160 3rd sequence;
#X obj 152 217 bng 15 250 50 0 empty empty empty 0 -6 0 8 -262144 -1
-1;
#X msg 129 159 1 1 1;
#X msg 109 185 1 1;
#X msg 259 -130 1 1;
#X obj 181 504 /;
#X obj 183 467 r arpegg_length_3;
#X msg 45 239 2;
#X msg 138 239 1;
#X obj 167 612 /;
#X obj 148 570 r arpegg_length_1;
#X obj 128 -174 r arpegg_b4;
#X msg 408 -86 2;
#X msg 505 -156 1 1 1;
#X text 511 -137 3rd sequence;
#X obj 493 -111 bng 15 250 50 0 empty empty empty 0 -6 0 8 -262144
-1 -1;
#X msg 465 -86 1;
#X obj 173 208 s improv_seq3;
#X obj 302 -99 s improv_seq1;
#X obj 217 648 r improv_seq3;
#X obj 218 672 r improv_seq1;
#X obj 407 253 s arpegg_s4;
#X obj 497 253 s arpegg_b4;
#X obj 409 230 r arpegg_both4;
#X obj 319 -13 s arp_midi_length_1;
#X msg 210 239 8;
#X msg 253 239 16;
#X msg 297 238 32;
#X obj 190 265 s arp_midi_length_3;
#N canvas 63 55 488 528 snare_auto 0;
#X obj 21 -40 r snare_react;
#X obj 34 57 r snare_auto_improv;
#X obj 13 142 spigot;
#X obj 13 274 delay;
#X obj 64 273 delay;
#X obj 13 426 s auto_arpegg_s1;
#X obj 183 422 s auto_arpegg_s2;
#X obj 175 32 r arpegg_b4;
#X obj 95 93 spigot;
#X msg 112 146 0;
#X obj 124 117 delay;
#X msg 238 322 1;
#X msg 191 307 0;
#X obj 13 380 spigot;
#X obj 190 378 spigot;
#X msg 288 324 1;
#X obj 65 343 spigot;
#X msg 156 307 0;
#X msg 328 321 1;
#X obj 136 -40 r auto_arpegg_s1;
#X text 13 -61 bass drum is initial trigger;
#X obj 273 -40 r auto_arpegg_s2;
#X text 16 -19 probability distribution;
#X obj 21 27 random 8;
#X obj 14 183 select 0 1 2 3 4 5 6 7;
#X msg 80 -2 8;
#X msg 158 -3 2;
#X msg 272 -5 3;
#X obj 201 236 r c_bar;
#X obj 170 88 r measure_16th;
#X obj 57 98 i 0;
#N canvas 64 42 415 277 sadel 0;
#X obj 241 88 r measure_16th;
#X obj 280 114 loadbang;
#X msg 231 169 0;
#X msg 300 172 0;
#X obj 99 69 select 0 1 2 3;
#X obj 143 37 random 4;
#X obj 236 59 r measure_8th;
#X obj 159 145 f 125;
#X obj 99 147 f 250;
#X obj 8 4 r snare_react;
#X obj 131 9 r auto_arpegg_s1;
#X obj 268 9 r auto_arpegg_s2;
#X obj 90 231 outlet;
#X obj 211 234 outlet;
#X connect 0 0 7 1;
#X connect 1 0 2 0;
#X connect 1 0 3 0;
#X connect 2 0 12 0;
#X connect 2 0 13 0;
#X connect 3 0 13 0;
#X connect 4 0 3 0;
#X connect 4 0 7 0;
#X connect 4 1 2 0;
#X connect 4 1 8 0;
#X connect 4 2 2 0;
#X connect 4 2 3 0;
#X connect 4 3 7 0;
#X connect 4 3 8 0;
#X connect 5 0 4 0;
#X connect 6 0 8 1;
#X connect 7 0 12 0;
#X connect 8 0 13 0;
#X connect 9 0 5 0;
#X connect 10 0 5 0;
#X connect 11 0 5 0;
#X restore 200 182 pd sadel;
#X obj 128 272 select 0 1 2 3 4 5 6 7 8 9 10 11 12 13 14 15;
#X text 204 402 16th gate bars;
#X text 19 405 8th gate bars;
#X connect 0 0 25 0;
#X connect 0 0 23 0;
#X connect 1 0 30 1;
#X connect 1 0 30 0;
#X connect 1 0 8 1;
#X connect 2 0 24 0;
#X connect 3 0 13 0;
#X connect 4 0 14 0;
#X connect 4 0 16 0;
#X connect 7 0 8 0;
#X connect 7 0 10 0;
#X connect 8 0 9 0;
#X connect 9 0 2 1;
#X connect 10 0 30 0;
#X connect 11 0 13 1;
#X connect 12 0 13 1;
#X connect 12 0 14 1;
#X connect 13 0 5 0;
#X connect 14 0 6 0;
#X connect 15 0 14 1;
#X connect 16 0 6 0;
#X connect 17 0 16 1;
#X connect 18 0 16 1;
#X connect 19 0 26 0;
#X connect 19 0 23 0;
#X connect 21 0 27 0;
#X connect 21 0 23 0;
#X connect 23 0 2 0;
#X connect 24 0 3 0;
#X connect 24 1 4 0;
#X connect 24 2 3 0;
#X connect 24 3 3 0;
#X connect 24 4 4 0;
#X connect 24 5 3 0;
#X connect 24 6 4 0;
#X connect 24 7 4 0;
#X connect 25 0 23 1;
#X connect 26 0 23 1;
#X connect 27 0 23 1;
#X connect 28 0 32 0;
#X connect 29 0 10 1;
#X connect 30 0 2 1;
#X connect 31 0 3 1;
#X connect 31 1 4 1;
#X connect 32 0 12 0;
#X connect 32 0 17 0;
#X connect 32 3 11 0;
#X connect 32 5 12 0;
#X connect 32 7 15 0;
#X connect 32 8 12 0;
#X connect 32 9 11 0;
#X connect 32 10 12 0;
#X connect 32 11 15 0;
#X connect 32 15 12 0;
#X connect 32 15 18 0;
#X restore 246 15 pd snare_auto;
#X text 355 17 <<--Automatic improv for snare;
#X obj 235 77 s snare_auto_chg;
#X msg 212 52 0;
#X obj -43 205 r auto_arpegg_s1;
#X obj -43 202 r auto_arpegg_s2;
#X obj 264 43 r mute_s;
#X obj 337 47 select 1;
#X obj 410 695 r v1_sync;
#X obj 261 405 r v1_sync;
#X msg 347 -40 8;
#X msg 394 -40 16;
#X msg 436 -41 32;
#X obj 465 730 r measure_8th;
#X connect 1 0 0 0;
#X connect 2 0 1 0;
#X connect 3 0 1 0;
#X connect 4 0 1 0;
#X connect 5 0 4 0;
#X connect 6 0 11 0;
#X connect 7 0 6 0;
#X connect 8 0 6 0;
#X connect 9 0 6 0;
#X connect 10 0 9 0;
#X connect 12 0 100 0;
#X connect 12 0 143 0;
#X connect 13 0 99 0;
#X connect 13 0 143 0;
#X connect 18 0 20 0;
#X connect 19 0 26 0;
#X connect 20 0 26 0;
#X connect 21 1 29 0;
#X connect 22 0 24 0;
#X connect 23 0 27 0;
#X connect 24 0 27 0;
#X connect 25 1 28 0;
#X connect 26 0 25 0;
#X connect 27 0 21 0;
#X connect 30 0 55 0;
#X connect 30 0 130 0;
#X connect 31 0 63 0;
#X connect 31 0 134 0;
#X connect 32 0 19 0;
#X connect 32 0 18 0;
#X connect 32 0 129 0;
#X connect 32 0 93 0;
#X connect 33 0 18 0;
#X connect 33 0 19 0;
#X connect 33 0 12 0;
#X connect 33 0 93 0;
#X connect 34 0 18 0;
#X connect 34 0 19 0;
#X connect 34 0 13 0;
#X connect 34 0 93 0;
#X connect 35 0 128 0;
#X connect 35 0 23 0;
#X connect 35 0 22 0;
#X connect 35 0 91 0;
#X connect 35 0 157 0;
#X connect 36 0 22 0;
#X connect 36 0 23 0;
#X connect 36 0 123 0;
#X connect 36 0 91 0;
#X connect 36 0 157 0;
#X connect 37 0 22 0;
#X connect 37 0 23 0;
#X connect 37 0 122 0;
#X connect 37 0 91 0;
#X connect 37 0 157 0;
#X connect 40 0 39 0;
#X connect 40 0 38 0;
#X connect 41 0 42 0;
#X connect 41 0 43 0;
#X connect 44 0 18 1;
#X connect 44 0 22 1;
#X connect 45 0 46 0;
#X connect 45 0 47 0;
#X connect 48 0 1 2;
#X connect 48 0 6 2;
#X connect 48 0 134 0;
#X connect 48 0 130 0;
#X connect 49 0 52 0;
#X connect 50 0 51 0;
#X connect 51 0 49 0;
#X connect 53 0 58 0;
#X connect 53 0 109 0;
#X connect 54 0 58 0;
#X connect 54 0 109 1;
#X connect 55 0 5 0;
#X connect 55 0 3 0;
#X connect 56 0 57 0;
#X connect 57 1 55 1;
#X connect 58 0 64 0;
#X connect 59 0 64 0;
#X connect 60 0 110 1;
#X connect 60 0 116 1;
#X connect 61 0 69 0;
#X connect 62 0 69 0;
#X connect 63 0 8 0;
#X connect 63 0 10 0;
#X connect 65 0 56 0;
#X connect 66 0 67 0;
#X connect 67 1 63 1;
#X connect 68 0 61 0;
#X connect 68 0 110 0;
#X connect 70 0 66 0;
#X connect 71 0 27 0;
#X connect 71 0 26 0;
#X connect 91 0 92 0;
#X connect 93 0 94 0;
#X connect 96 0 132 0;
#X connect 96 0 152 0;
#X connect 97 0 132 0;
#X connect 97 0 151 0;
#X connect 98 0 132 0;
#X connect 98 0 150 0;
#X connect 99 0 137 0;
#X connect 99 0 166 0;
#X connect 100 0 137 0;
#X connect 100 0 165 0;
#X connect 101 0 137 0;
#X connect 101 0 164 0;
#X connect 109 0 59 0;
#X connect 110 0 62 0;
#X connect 111 0 56 0;
#X connect 112 0 66 0;
#X connect 113 0 116 0;
#X connect 113 0 115 0;
#X connect 113 0 120 0;
#X connect 114 1 11 0;
#X connect 115 0 118 0;
#X connect 116 0 117 0;
#X connect 117 0 118 0;
#X connect 118 0 114 0;
#X connect 119 0 118 0;
#X connect 120 0 121 0;
#X connect 122 0 96 0;
#X connect 122 0 142 0;
#X connect 123 0 97 0;
#X connect 123 0 142 0;
#X connect 124 0 23 0;
#X connect 124 0 127 0;
#X connect 124 0 91 0;
#X connect 124 0 22 0;
#X connect 124 0 157 0;
#X connect 126 0 133 0;
#X connect 126 0 150 0;
#X connect 127 0 126 0;
#X connect 127 0 142 0;
#X connect 128 0 98 0;
#X connect 128 0 142 0;
#X connect 129 0 101 0;
#X connect 129 0 143 0;
#X connect 130 0 5 1;
#X connect 131 0 130 1;
#X connect 132 0 95 0;
#X connect 133 0 95 0;
#X connect 134 0 10 1;
#X connect 135 0 134 1;
#X connect 136 0 19 0;
#X connect 136 0 138 0;
#X connect 136 0 93 0;
#X connect 136 0 18 0;
#X connect 137 0 102 0;
#X connect 138 0 140 0;
#X connect 138 0 143 0;
#X connect 140 0 141 0;
#X connect 140 0 164 0;
#X connect 141 0 102 0;
#X connect 144 0 1 1;
#X connect 145 0 6 1;
#X connect 148 0 147 0;
#X connect 148 0 146 0;
#X connect 150 0 153 0;
#X connect 151 0 153 0;
#X connect 152 0 153 0;
#X connect 157 0 156 0;
#X connect 158 0 23 0;
#X connect 158 0 22 0;
#X connect 158 0 128 0;
#X connect 159 0 22 0;
#X connect 159 0 23 0;
#X connect 159 0 123 0;
#X connect 160 0 161 0;
#X connect 161 0 157 0;
#X connect 162 0 62 0;
#X connect 163 0 59 0;
#X connect 164 0 149 0;
#X connect 165 0 149 0;
#X connect 166 0 149 0;
#X connect 167 0 61 0;
#X restore 283 164 pd arpeggiation;
#N canvas 80 159 229 230 clocks 0;
#X msg 16 -44 exclusive;
#X msg 31 -14 start;
#X msg 92 -72 stop;
#X obj 25 -99 r s_st;
#X obj 83 -99 r s_stp;
#X obj 11 65 s mast_ststp_mr;
#X obj 9 91 s mast_ststop;
#X msg 52 17 bang;
#N canvas 51 84 306 271 bar 0;
#X obj 14 -137 r v1_sync;
#X obj 64 -29 i 0;
#X obj 106 -69 + 1;
#X obj 121 -130 r s_st;
#X obj 129 5 mod 16;
#X obj 174 -30 s s_bar;
#X obj 106 60 s c_bar;
#X obj 109 -164 loadbang;
#X obj 200 -136 r s_stp;
#X msg 201 -104 0;
#X text 17 -205 BAR LOGIC;
#X msg 72 -88 0;
#X connect 0 0 1 0;
#X connect 1 0 4 0;
#X connect 2 0 1 1;
#X connect 2 0 5 0;
#X connect 3 0 11 0;
#X connect 4 0 6 0;
#X connect 4 0 2 0;
#X connect 7 0 11 0;
#X connect 8 0 9 0;
#X connect 9 0 4 0;
#X connect 11 0 1 1;
#X restore 163 -90 pd bar;
#N canvas 92 95 529 321 master 0;
#X obj 183 11 r measure_interval;
#X obj 426 195 s v1_sync;
#X obj 334 11 r mast_ststop;
#X obj 241 236 s clock_16th;
#X obj 350 235 s clock_32nd;
#X obj 17 15 s clock_8th;
#X obj 14 287 s clock_quarter;
#X obj 149 288 s clock_offset_half;
#X obj 112 218 delay;
#X obj 323 70 metro;
#X obj 377 158 + 1;
#X obj 349 102 i 0;
#X obj 348 131 mod 2;
#X obj 277 155 + 1;
#X obj 249 99 i 0;
#X obj 248 128 mod 2;
#X obj 178 156 + 1;
#X obj 150 100 i 0;
#X obj 149 129 mod 2;
#X obj 155 58 + 1;
#X obj 127 2 i 0;
#X obj 126 31 mod 2;
#X obj 76 157 + 1;
#X obj 48 101 i 0;
#X obj 47 130 mod 2;
#X obj 451 1 r s_stp;
#X msg 435 67 0;
#X obj 457 24 loadbang;
#X obj 372 40 / 128;
#X obj 192 49 / 8;
#X obj 426 152 metro;
#X obj 442 96 r s_st;
#X obj 6 167 select 0;
#X obj 108 166 select 0;
#X obj 207 165 select 0;
#X obj 307 168 select 0;
#X obj 85 68 select 0;
#X connect 0 0 28 0;
#X connect 0 0 29 0;
#X connect 0 0 30 1;
#X connect 2 0 9 0;
#X connect 2 0 30 0;
#X connect 8 0 7 0;
#X connect 9 0 11 0;
#X connect 10 0 11 1;
#X connect 11 0 12 0;
#X connect 12 0 10 0;
#X connect 12 0 35 0;
#X connect 13 0 14 1;
#X connect 14 0 15 0;
#X connect 15 0 13 0;
#X connect 15 0 34 0;
#X connect 16 0 17 1;
#X connect 17 0 18 0;
#X connect 18 0 16 0;
#X connect 18 0 33 0;
#X connect 19 0 20 1;
#X connect 20 0 21 0;
#X connect 21 0 19 0;
#X connect 21 0 36 0;
#X connect 22 0 23 1;
#X connect 23 0 24 0;
#X connect 24 0 22 0;
#X connect 24 0 32 0;
#X connect 25 0 26 0;
#X connect 26 0 11 1;
#X connect 26 0 14 1;
#X connect 26 0 17 1;
#X connect 26 0 23 1;
#X connect 26 0 20 1;
#X connect 27 0 26 0;
#X connect 28 0 9 1;
#X connect 29 0 8 1;
#X connect 30 0 1 0;
#X connect 31 0 26 0;
#X connect 32 0 6 0;
#X connect 32 0 8 0;
#X connect 33 0 3 0;
#X connect 33 0 20 0;
#X connect 34 0 4 0;
#X connect 34 0 17 0;
#X connect 35 0 14 0;
#X connect 36 0 5 0;
#X connect 36 0 23 0;
#X restore 116 -31 pd master;
#N canvas 89 66 346 428 ctrs 0;
#X obj 208 10 r clock_16th;
#X obj 227 57 i 0;
#X obj 232 94 mod 16;
#X obj 246 139 + 1;
#X obj 210 177 s cnt_16;
#X obj 39 276 i 0;
#X obj 58 358 + 1;
#X msg 133 188 0;
#X obj 20 229 r clock_8th;
#X obj 44 386 s cnt_8;
#X obj 44 313 mod 8;
#X obj 232 270 i 0;
#X obj 251 352 + 1;
#X obj 229 379 s cnt_4;
#X obj 213 223 r clock_quarter;
#X obj 237 307 mod 4;
#X obj 38 61 i 0;
#X obj 57 143 + 1;
#X obj 19 14 r clock_32nd;
#X obj 43 98 mod 32;
#X obj 28 178 s cnt_32;
#X obj 113 106 loadbang;
#X obj 114 76 r s_stp;
#X connect 0 0 1 0;
#X connect 1 0 2 0;
#X connect 2 0 4 0;
#X connect 2 0 3 0;
#X connect 3 0 1 1;
#X connect 5 0 10 0;
#X connect 6 0 5 1;
#X connect 7 0 5 1;
#X connect 7 0 11 1;
#X connect 7 0 1 1;
#X connect 7 0 16 1;
#X connect 8 0 5 0;
#X connect 10 0 6 0;
#X connect 10 0 9 0;
#X connect 11 0 15 0;
#X connect 12 0 11 1;
#X connect 14 0 11 0;
#X connect 15 0 12 0;
#X connect 15 0 13 0;
#X connect 16 0 19 0;
#X connect 17 0 16 1;
#X connect 18 0 16 0;
#X connect 19 0 17 0;
#X connect 19 0 20 0;
#X connect 21 0 7 0;
#X connect 22 0 7 0;
#X restore 117 4 pd ctrs;
#X connect 0 0 5 0;
#X connect 1 0 5 0;
#X connect 2 0 5 0;
#X connect 2 0 6 0;
#X connect 3 0 0 0;
#X connect 3 0 1 0;
#X connect 3 0 7 0;
#X connect 4 0 2 0;
#X connect 7 0 6 0;
#X restore 201 164 pd clocks;
#X text 138 11 CLOSED HI-HAT;
#X text 16 200 Be sure you have the MJlib external at;
#X text 23 217 http://www.pagefall.com/pd/mjLib.zip;
#X restore 43 78 pd engine;
#X obj 45 51 tgl 17 0 start_stop start_stop Start-Stop -20 -10 0 8
-261689 -1 -1 0 1;
#X obj 279 217 tgl 15 0 man_hats_togg man_hats_on Manual -20 -6 0 8
-262144 -1 -1 0 1;
#X obj 287 251 hsl 64 15 0.8 5 1 0 man_hats empty Manual_Speed -30
-6 0 8 -262144 -1 -1 0 1;
#X obj 251 145 hsl 64 15 1 5 0 0 hat_range hat_range Speed_Range 0
-6 0 7 -262144 -1 -1 1575 1;
#X obj 101 172 bng 29 250 50 0 arpegg_s1 empty 8 10 16 0 8 -262131
-1 -1;
#X obj 132 140 bng 30 250 50 0 arpegg_b2 empty 16 8 16 0 8 -257472
-1 -1;
#X obj 162 140 bng 30 250 50 0 arpegg_b3 empty 32 8 16 0 8 -257472
-1 -1;
#X obj 132 172 bng 29 250 50 0 arpegg_s2 empty 16 8 16 0 8 -262131
-1 -1;
#X obj 163 172 bng 29 250 50 0 arpegg_s3 empty 32 8 16 0 8 -262131
-1 -1;
#X obj 171 227 bng 26 250 50 0 arpegg_both3 empty 32 7 14 0 8 -44926
-1 -1;
#X obj 140 227 bng 26 250 50 0 arpegg_both2 empty 16 7 14 0 8 -44926
-1 -1;
#X obj 109 227 bng 26 250 50 0 arpegg_both1 empty 8 9 14 0 8 -44926
-1 -1;
#X text 150 209 both;
#X text 249 117 HI-HAT D1;
#X obj 104 143 bng 24 250 50 0 hit_b empty Hit 0 14 0 7 -257472 -1
-1;
#X obj 193 140 bng 30 250 50 0 arpegg_b4 empty 3 11 16 0 8 -257472
-1 -1;
#X obj 194 172 bng 29 250 50 0 arpegg_s4 empty 3 11 14 0 8 -262131
-1 -1;
#X obj 202 227 bng 26 250 50 0 arpegg_both4 empty 3 10 13 0 8 -44926
-1 -1;
#X obj 82 186 tgl 15 0 snare_auto_improv snare_auto_chg AUTO -6 22
0 7 -262131 -1 -1 0 1;
#X obj 300 189 tgl 9 0 offset_16th empty Random_16th_Offset -50 -6
0 7 -262144 -1 -1 0 1;
#X obj 339 216 bng 15 250 50 0 hat_rest empty Rest_8th -16 -6 0 7 -262144
-1 -1;
#X restore -998 -677 pd generator;
#X obj -170 -614 ii 120;
#X obj -207 -555 s bpm;
#X connect 10 0 11 0;
#X connect 13 0 10 0;
#X connect 17 0 19 0;
#X connect 18 0 20 0;
#X connect 18 1 21 0;
#X connect 18 2 22 0;
#X connect 23 0 24 0;
#X connect 23 1 25 0;
#X connect 23 2 26 0;
#X connect 29 0 13 0;
#X connect 31 0 33 0;
#X connect 32 0 36 0;
#X connect 32 0 40 0;
#X connect 35 0 36 0;
#X connect 36 1 34 0;
#X connect 36 2 31 0;
#X connect 39 0 32 0;
