#N canvas 455 127 898 634 10;
#X obj 275 -1332 median_7;
#X obj 275 -1353 maxlib/scale 0 1024 0 1;
#X obj 302 -1377 f;
#X obj 350 -1381 f;
#X text 301 -1444 min;
#X text 300 -1459 calibration;
#X text 350 -1446 max;
#X obj 275 -1311 iir 6;
#X obj 246 -1418 inlet;
#X obj 314 -1311 r iir;
#X obj 302 -1418 inlet;
#X obj 350 -1418 inlet;
#X obj 275 -1282 clip 0 1;
#X obj 275 -1130 s;
#X obj 334 -1162 l2s;
#X obj 334 -1259 r currentPage;
#X msg 334 -1183 p\$1a\$2;
#X obj 334 -1204 pack f \$1;
#X obj 350 -1228 ii 0;
#X connect 0 0 7 0;
#X connect 1 0 0 0;
#X connect 2 0 1 1;
#X connect 3 0 1 2;
#X connect 7 0 12 0;
#X connect 8 0 1 0;
#X connect 8 0 2 1;
#X connect 8 0 3 1;
#X connect 9 0 7 1;
#X connect 10 0 2 0;
#X connect 11 0 3 0;
#X connect 12 0 13 0;
#X connect 14 0 13 1;
#X connect 15 0 17 0;
#X connect 16 0 14 0;
#X connect 17 0 16 0;
#X connect 18 0 17 0;
