#N canvas 1 77 847 482 10;
#X obj 89 94 inlet;
#X obj 89 141 t b;
#X obj 89 117 sel 0;
#X obj 89 166 debounce 50;
#X obj 152 144 r debounce;
#X obj 89 251 f;
#X obj 88 364 s;
#X msg 89 297 p\$1b\$2;
#X obj 89 342 t b a;
#X obj 89 318 l2s;
#X obj 104 226 r currentPage;
#X obj 89 276 pack f \$1;
#X obj 273 261 f;
#X obj 273 376 s;
#X obj 273 328 l2s;
#X obj 273 286 pack f \$1;
#X obj 258 135 onebang;
#X obj 258 161 timer;
#X obj 313 108 loadbang;
#X obj 258 211 sel 1;
#X obj 258 83 sel 0;
#X obj 285 109 t b;
#X obj 258 109 t b;
#X obj 298 160 r holdFor;
#X msg 273 307 p\$1b\$2h;
#X obj 258 188 > 750;
#X obj 258 235 t b;
#X obj 273 352 t b a;
#X obj 459 193 timer;
#X obj 459 237 b;
#X obj 459 169 t b b;
#X obj 459 217 moses 175;
#X obj 459 262 f;
#X obj 459 377 s;
#X obj 459 329 l2s;
#X obj 459 287 pack f \$1;
#X obj 459 353 t b a;
#X msg 459 308 p\$1b\$2d;
#X obj 510 192 r doubleClick;
#X connect 0 0 2 0;
#X connect 0 0 20 0;
#X connect 1 0 3 0;
#X connect 1 0 30 0;
#X connect 2 0 1 0;
#X connect 3 0 5 0;
#X connect 4 0 3 1;
#X connect 5 0 11 0;
#X connect 7 0 9 0;
#X connect 8 0 6 0;
#X connect 8 1 6 1;
#X connect 9 0 8 0;
#X connect 10 0 5 1;
#X connect 10 0 12 1;
#X connect 10 0 32 1;
#X connect 11 0 7 0;
#X connect 12 0 15 0;
#X connect 14 0 27 0;
#X connect 15 0 24 0;
#X connect 16 0 17 0;
#X connect 17 0 25 0;
#X connect 18 0 16 1;
#X connect 19 0 26 0;
#X connect 20 0 22 0;
#X connect 20 1 21 0;
#X connect 21 0 16 1;
#X connect 21 0 17 1;
#X connect 22 0 16 0;
#X connect 23 0 25 1;
#X connect 24 0 14 0;
#X connect 25 0 19 0;
#X connect 26 0 12 0;
#X connect 27 0 13 0;
#X connect 27 1 13 1;
#X connect 28 0 31 0;
#X connect 29 0 32 0;
#X connect 30 0 28 0;
#X connect 30 1 28 1;
#X connect 31 0 29 0;
#X connect 32 0 35 0;
#X connect 34 0 36 0;
#X connect 35 0 37 0;
#X connect 36 0 33 0;
#X connect 36 1 33 1;
#X connect 37 0 34 0;
#X connect 38 0 31 1;
