#N canvas 1 83 854 552 10;
#X obj 389 247 debytemask;
#X obj 389 291 tgl 15 0 empty empty empty 17 7 0 10 -262144 -1 -1 1
1;
#X obj 409 291 tgl 15 0 empty empty empty 17 7 0 10 -262144 -1 -1 1
1;
#X obj 431 292 tgl 15 0 empty empty empty 17 7 0 10 -262144 -1 -1 1
1;
#X obj 451 292 tgl 15 0 empty empty empty 17 7 0 10 -262144 -1 -1 1
1;
#X obj 472 292 tgl 15 0 empty empty empty 17 7 0 10 -262144 -1 -1 1
1;
#X obj 492 292 tgl 15 0 empty empty empty 17 7 0 10 -262144 -1 -1 1
1;
#X obj 514 293 tgl 15 0 empty empty empty 17 7 0 10 -262144 -1 -1 1
1;
#X obj 534 293 tgl 15 0 empty empty empty 17 7 0 10 -262144 -1 -1 1
1;
#X obj 214 244 debytemask;
#X obj 214 288 tgl 15 0 empty empty empty 17 7 0 10 -262144 -1 -1 1
1;
#X obj 234 288 tgl 15 0 empty empty empty 17 7 0 10 -262144 -1 -1 1
1;
#X obj 256 289 tgl 15 0 empty empty empty 17 7 0 10 -262144 -1 -1 1
1;
#X obj 276 289 tgl 15 0 empty empty empty 17 7 0 10 -262144 -1 -1 1
1;
#X obj 297 289 tgl 15 0 empty empty empty 17 7 0 10 -262144 -1 -1 1
1;
#X obj 317 289 tgl 15 0 empty empty empty 17 7 0 10 -262144 -1 -1 1
1;
#X obj 339 290 tgl 15 0 empty empty empty 17 7 0 10 -262144 -1 -1 1
1;
#X obj 359 290 tgl 15 0 empty empty empty 17 7 0 10 -262144 -1 -1 1
1;
#X obj 48 244 debytemask;
#X obj 48 288 tgl 15 0 empty empty empty 17 7 0 10 -262144 -1 -1 1
1;
#X obj 68 288 tgl 15 0 empty empty empty 17 7 0 10 -262144 -1 -1 1
1;
#X obj 90 289 tgl 15 0 empty empty empty 17 7 0 10 -262144 -1 -1 1
1;
#X obj 110 289 tgl 15 0 empty empty empty 17 7 0 10 -262144 -1 -1 1
1;
#X obj 131 289 tgl 15 0 empty empty empty 17 7 0 10 -262144 -1 -1 1
1;
#X obj 151 289 tgl 15 0 empty empty empty 17 7 0 10 -262144 -1 -1 1
1;
#X obj 173 290 tgl 15 0 empty empty empty 17 7 0 10 -262144 -1 -1 1
1;
#X obj 193 290 tgl 15 0 empty empty empty 17 7 0 10 -262144 -1 -1 1
1;
#X floatatom 75 133 5 0 0 0 - - -;
#X floatatom 130 136 5 0 0 0 - - -;
#X floatatom 180 154 5 0 0 0 - - -;
#X floatatom 228 161 5 0 0 0 - - -;
#X floatatom 275 184 5 0 0 0 - - -;
#X obj 114 97 heavybox ________________;
#X obj 91 -187 nbx 5 14 -1e+37 1e+37 0 0 empty empty empty 0 -8 0 96
-262144 -1 -1 1023 256;
#X obj 88 -106 nbx 5 14 -1e+37 1e+37 0 0 empty empty empty 0 -8 0 96
-262144 -1 -1 1023 256;
#X obj 209 -28 nbx 5 14 -1e+37 1e+37 0 0 empty empty empty 0 -8 0 96
-262144 -1 -1 108 256;
#X obj 420 50 nbx 5 14 -1e+37 1e+37 0 0 empty empty empty 0 -8 0 96
-262144 -1 -1 105 256;
#X obj 421 143 nbx 5 14 -1e+37 1e+37 0 0 empty empty empty 0 -8 0 96
-262144 -1 -1 98 256;
#X obj 235 51 print;
#X connect 0 0 1 0;
#X connect 0 1 2 0;
#X connect 0 2 3 0;
#X connect 0 3 4 0;
#X connect 0 4 5 0;
#X connect 0 5 6 0;
#X connect 0 6 7 0;
#X connect 0 7 8 0;
#X connect 9 0 10 0;
#X connect 9 1 11 0;
#X connect 9 2 12 0;
#X connect 9 3 13 0;
#X connect 9 4 14 0;
#X connect 9 5 15 0;
#X connect 9 6 16 0;
#X connect 9 7 17 0;
#X connect 18 0 19 0;
#X connect 18 1 20 0;
#X connect 18 2 21 0;
#X connect 18 3 22 0;
#X connect 18 4 23 0;
#X connect 18 5 24 0;
#X connect 18 6 25 0;
#X connect 18 7 26 0;
#X connect 32 0 27 0;
#X connect 32 0 33 0;
#X connect 32 1 28 0;
#X connect 32 1 34 0;
#X connect 32 2 29 0;
#X connect 32 2 35 0;
#X connect 32 3 30 0;
#X connect 32 3 36 0;
#X connect 32 4 31 0;
#X connect 32 4 37 0;
#X connect 32 5 18 0;
#X connect 32 6 9 0;
#X connect 32 7 0 0;
